<?xml version="1.0" encoding="UTF-8" standalone="no"?>
<!-- Generator: visioncortex VTracer -->

<svg
   id="svg"
   version="1.1"
   style="display: block;"
   viewBox="0 0 1024 1024"
   sodipodi:docname="haytham_assistant_raw.svg"
   inkscape:version="1.4.3 (0d15f75042, 2025-12-25)"
   xmlns:inkscape="http://www.inkscape.org/namespaces/inkscape"
   xmlns:sodipodi="http://sodipodi.sourceforge.net/DTD/sodipodi-0.dtd"
   xmlns="http://www.w3.org/2000/svg"
   xmlns:svg="http://www.w3.org/2000/svg">
  <defs
     id="defs66" />
  <sodipodi:namedview
     id="namedview66"
     pagecolor="#ffffff"
     bordercolor="#000000"
     borderopacity="0.25"
     inkscape:showpageshadow="2"
     inkscape:pageopacity="0.0"
     inkscape:pagecheckerboard="0"
     inkscape:deskcolor="#d1d1d1"
     inkscape:zoom="0.8359375"
     inkscape:cx="511.40187"
     inkscape:cy="512"
     inkscape:window-width="1920"
     inkscape:window-height="1052"
     inkscape:window-x="0"
     inkscape:window-y="0"
     inkscape:window-maximized="1"
     inkscape:current-layer="svg" />
  <rect
     style="display:block;fill:#e0e0e0;stroke-width:10.24;paint-order:stroke fill markers;fill-opacity:1"
     id="rect66"
     width="1024"
     height="1024"
     x="0"
     y="0" />
  <path
     d="M0 0 C3.69511276 -0.02882263 3.69511276 -0.02882263 7.46487427 -0.05822754 C10.13048431 -0.06672729 12.79609436 -0.07522705 15.54248047 -0.08398438 C18.28003632 -0.09538452 21.01759216 -0.10678467 23.83810425 -0.11853027 C29.63668265 -0.13744095 35.4352826 -0.15050246 41.23388672 -0.15820312 C50.10275808 -0.17760985 58.97070185 -0.23964736 67.83935547 -0.30273438 C73.46955829 -0.31579475 79.09976775 -0.32629557 84.72998047 -0.33398438 C87.38344513 -0.35867798 90.03690979 -0.38337158 92.77078247 -0.40881348 C96.49426468 -0.39981018 96.49426468 -0.39981018 100.29296875 -0.390625 C102.46883575 -0.39791626 104.64470276 -0.40520752 106.88650513 -0.41271973 C129.88045132 2.33610363 133.27180358 18.22210236 133.31555176 38.56062317 C133.32697205 41.73627396 133.33839233 44.91192474 133.35015869 48.18380737 C133.35264933 51.70758041 133.35489954 55.23135362 133.35693359 58.75512695 C133.36619117 62.46255185 133.37624065 66.16997485 133.38702393 69.87739563 C133.41326035 79.95171864 133.42615907 90.026015 133.43504524 100.10036683 C133.44090729 106.39283434 133.44911692 112.68529456 133.45805359 118.97775841 C133.4853976 138.66130312 133.50473501 158.34483118 133.51245737 178.02839357 C133.52142401 200.75888187 133.55654775 223.48912994 133.61445856 246.21954519 C133.65766127 263.78576776 133.6778642 281.35192266 133.68053961 298.91819781 C133.68263746 309.41212522 133.694491 319.90582672 133.73017883 330.39969826 C133.76308768 340.26814674 133.76747679 350.13619881 133.74990082 360.00468254 C133.74835737 363.62672104 133.75708107 367.24878063 133.77681732 370.87076569 C133.80217788 375.81476504 133.786948 380.758923 133.76965332 385.70295715 C133.774053 389.85341472 133.774053 389.85341472 133.77854156 394.08771992 C131.71969162 414.11107348 118.20147513 421.70033531 99.14013672 421.69458008 C96.76737549 421.70080887 94.39461426 421.70703766 91.94995117 421.7134552 C88.12469849 421.69964058 88.12469849 421.69964058 84.22216797 421.68554688 C81.59272217 421.68604538 78.96327637 421.68654388 76.25415039 421.6870575 C70.69628137 421.6847176 65.13841128 421.67499421 59.58056641 421.65844727 C51.06777481 421.63485737 42.55529644 421.63788753 34.04248047 421.64453125 C28.6440411 421.63895443 23.24560305 421.63184454 17.84716797 421.62304688 C15.29699951 421.62395828 12.74683105 421.62486969 10.11938477 421.62580872 C6.56024292 421.6115107 6.56024292 421.6115107 2.92919922 421.59692383 C0.84454346 421.59231644 -1.2401123 421.58770905 -3.38793945 421.58296204 C-29.01224973 420.38524005 -33.20927636 403.42296564 -33.22602844 381.14001465 C-33.23311325 378.00216965 -33.24019806 374.86432465 -33.24749756 371.63139343 C-33.24520376 368.15530381 -33.24269406 364.67921433 -33.23999023 361.203125 C-33.2443375 357.54156897 -33.24952069 353.88001385 -33.25547791 350.21846008 C-33.2688763 340.27448075 -33.26944571 330.33053941 -33.26691461 320.38655281 C-33.26584565 312.08843539 -33.27072625 303.79032568 -33.27552003 295.49220991 C-33.28661774 275.9197682 -33.28705086 256.34734568 -33.28100586 236.77490234 C-33.27496239 216.57262233 -33.28728608 196.37041189 -33.30857593 176.16814375 C-33.32617716 158.82953176 -33.33219569 141.49094194 -33.32893819 124.15232134 C-33.32712312 113.79380432 -33.32978404 103.43533695 -33.34365273 93.076828 C-33.35620259 83.33895943 -33.35431369 73.6011996 -33.34124184 63.86333275 C-33.33887047 60.2872279 -33.34163065 56.71111546 -33.34986496 53.1350193 C-33.36028569 48.25819499 -33.35045544 43.38133986 -33.33955383 38.5045166 C-33.33972157 35.77387184 -33.33988932 33.04322708 -33.34006214 30.22983551 C-32.17791759 8.80749858 -19.89431811 0.12513369 0 0 Z "
     transform="translate(713.96533203125,150.677734375)"
     style="fill: #1E1D1E;"
     id="path2" />
  <path
     d="M0 0 C2.46986389 -0.0159874 4.93972778 -0.03197479 7.48443604 -0.04844666 C11.49226227 -0.05649071 11.49226227 -0.05649071 15.58105469 -0.06469727 C18.32335388 -0.07372574 21.06565308 -0.08275421 23.89105225 -0.09205627 C29.6980276 -0.10657898 35.50501938 -0.11545049 41.31201172 -0.11914062 C50.202754 -0.13103638 59.09280268 -0.18021214 67.98339844 -0.23071289 C73.62011379 -0.24017652 79.25683342 -0.24741183 84.89355469 -0.25219727 C88.88923553 -0.28149574 88.88923553 -0.28149574 92.96563721 -0.31138611 C96.68934601 -0.30226952 96.68934601 -0.30226952 100.48828125 -0.29296875 C102.66858948 -0.2980394 104.84889771 -0.30311005 107.09527588 -0.30833435 C128.92314494 1.96300121 133.12293922 19.07627947 133.14337158 37.95657349 C133.14908173 41.10292831 133.15479187 44.24928314 133.16067505 47.49098206 C133.1619205 51.00253292 133.16304557 54.51408383 133.1640625 58.02563477 C133.16868914 61.7045344 133.17371359 65.38343356 133.17910767 69.06233215 C133.19224876 79.07690999 133.19867999 89.09148111 133.20311832 99.10606623 C133.20604638 105.35896934 133.21015068 111.61187061 133.2146225 117.8647728 C133.22830212 137.41751507 133.23796642 156.97025315 133.24182439 176.52299988 C133.246306 199.11422891 133.26385688 221.70539746 133.29282498 244.29660809 C133.31442357 261.74468489 133.3245277 279.19274466 133.32586551 296.64083469 C133.32691487 307.06820871 133.33285058 317.49552592 133.35068512 327.92288589 C133.36713407 337.73127151 133.36933659 347.53955742 133.36054611 357.34795189 C133.35977403 360.94943572 133.36414081 364.55092484 133.37400436 368.15239525 C133.3866739 373.06635319 133.37907373 377.98035097 133.37042236 382.89431763 C133.37188892 385.64528337 133.37335548 388.39624912 133.37486649 391.23057747 C132.26736953 412.2998775 121.10595254 421.38806342 100.52416992 421.48339844 C98.11744492 421.49623367 95.71071991 421.50906891 93.23106384 421.52229309 C90.61761551 421.52968002 88.00416718 421.53706696 85.31152344 421.54467773 C82.63535416 421.55274948 79.95918488 421.56082123 77.20191956 421.56913757 C71.52841848 421.58298992 65.85490903 421.59370689 60.18139648 421.6015625 C51.50130431 421.61877577 42.82159275 421.66265616 34.14160156 421.70678711 C28.63574499 421.71691349 23.12988518 421.72542976 17.62402344 421.73217773 C15.02474472 421.74968582 12.425466 421.76719391 9.74742126 421.78523254 C7.31863113 421.78230698 4.889841 421.77938141 2.38745117 421.77636719 C0.25662582 421.78223343 -1.87419952 421.78809967 -4.06959534 421.79414368 C-27.31699843 419.88121184 -32.10661691 405.02567172 -32.15769958 384.39756775 C-32.16774521 381.21907196 -32.17779083 378.04057617 -32.18814087 374.76576233 C-32.19417119 371.22323632 -32.20005617 367.68071006 -32.20581055 364.13818359 C-32.21534688 360.42297273 -32.22523794 356.70776276 -32.23545837 352.99255371 C-32.26686569 340.77295997 -32.28711107 328.55335937 -32.30566406 316.33374023 C-32.31061005 313.21708321 -32.31061005 313.21708321 -32.31565595 310.03746343 C-32.34643491 290.44867996 -32.37314715 270.85989499 -32.39007473 251.27109432 C-32.41199286 226.1996867 -32.45398847 201.12849292 -32.5235123 176.05717081 C-32.57071922 158.43664729 -32.59500386 140.81618154 -32.60227162 123.19559675 C-32.60723228 112.66748982 -32.62235485 102.13962384 -32.66201591 91.61158562 C-32.69883637 81.70707221 -32.70730597 71.80293785 -32.69400978 61.89836884 C-32.6940638 58.26384784 -32.70438893 54.62931023 -32.72576141 50.99485207 C-32.75338826 46.0313485 -32.74036999 41.06766837 -32.72532654 36.10411072 C-32.72955848 33.32679 -32.73379042 30.54946928 -32.7381506 27.68798733 C-30.73608161 7.74621525 -19.04578242 0.09307837 0 0 Z "
     transform="translate(208.9970703125,150.693603515625)"
     style="fill: #0F0E0F;"
     id="path3" />
  <path
     d="M0 0 C3.67465141 -0.0238678 3.67465141 -0.0238678 7.42353821 -0.04821777 C10.0683873 -0.04841919 12.71323639 -0.04862061 15.43823242 -0.04882812 C18.15692062 -0.05644165 20.87560883 -0.06405518 23.67668152 -0.07189941 C29.43060385 -0.08271217 35.18454583 -0.08554882 40.93847656 -0.08105469 C49.74797278 -0.08008317 58.55659652 -0.12168679 67.3659668 -0.16601562 C72.95255352 -0.17122286 78.53914327 -0.17391082 84.12573242 -0.17382812 C88.08389702 -0.19842102 88.08389702 -0.19842102 92.12202454 -0.22351074 C94.58124863 -0.21420532 97.04047272 -0.2048999 99.57421875 -0.1953125 C101.73374588 -0.19736694 103.89327301 -0.19942139 106.11824036 -0.20153809 C127.99914308 2.11778578 131.21939741 17.58016308 131.28759766 36.74414062 C131.29592117 38.39512253 131.30424469 40.04610443 131.31282043 41.74711609 C131.33690646 47.20057531 131.34568775 52.65391512 131.35229492 58.10742188 C131.36125685 61.88883501 131.37037861 65.67024777 131.37965393 69.45166016 C131.39613885 77.37028873 131.40384413 85.28887502 131.40673828 93.20751953 C131.41214503 103.3918966 131.44992291 113.57588134 131.49548244 123.76014709 C131.52509454 131.56298306 131.53245826 139.36572232 131.53346443 147.16860962 C131.53769238 150.92625745 131.55022812 154.68390491 131.57098198 158.4414978 C131.59758759 163.67158793 131.59316345 168.90073811 131.58056641 174.13085938 C131.58563705 177.1142334 131.5907077 180.09760742 131.59593201 183.17138672 C130.64430064 192.84440406 127.61938692 189.46426529 120.98120117 185.23242188 C75.89187983 156.5819156 14.01134588 159.49200537 -29.01879883 190.41992188 C-34.83586643 188.48089934 -32.39223392 179.46923355 -32.39111328 174.30273438 C-32.39734207 171.02843506 -32.40357086 167.75413574 -32.4099884 164.38061523 C-32.40129818 160.76871592 -32.39197995 157.15681807 -32.38208008 153.54492188 C-32.3815618 149.86857097 -32.38207825 146.19221978 -32.3835907 142.51586914 C-32.38350076 134.79162485 -32.37303175 127.06748446 -32.35498047 119.34326172 C-32.33235636 109.44455571 -32.33173554 99.54600254 -32.33849812 89.64727783 C-32.34184233 82.04647465 -32.33519834 74.44570625 -32.32536888 66.84490967 C-32.32151964 63.19602643 -32.32036752 59.54713932 -32.32195473 55.89825439 C-32.32232602 50.78958265 -32.30821547 45.68091606 -32.29345703 40.57226562 C-32.28884964 37.66406006 -32.28424225 34.75585449 -32.27949524 31.75952148 C-31.52297335 10.460541 -20.78957882 0.08114048 0 0 Z "
     transform="translate(463.018798828125,150.580078125)"
     style="fill: #2B2B2B;"
     id="path4" />
  <path
     d="M0 0 C0.03867187 3.48240234 0.03867187 3.48240234 0.078125 7.03515625 C-5.02773023 114.44046805 -164.66847663 100.13578501 -162.625 -6.125 C-156.2423657 -107.1833764 -0.66487218 -100.56191669 0 0 Z "
     transform="translate(594.25,488.0625)"
     style="fill: #C11518;"
     id="path5" />
  <path
     d="M0 0 C7.3368791 0.03743306 14.56023811 -0.54224017 21.875 -1.09375 C31.51619753 0.62789242 33.0482811 13 22 13 C22 14.65 22 16.3 22 18 C18.33427994 18.08331182 14.66572006 18.08331182 11 18 C10.50024396 22.01610554 10.50024396 22.01610554 17 20.8125 C32.25676761 21.28927399 17.99483144 27.23062014 10 27 C9.50155093 31.62761112 9.50155093 31.62761112 19.5 29.25 C31.31325436 28.93912489 34.00660605 35.81283716 22.3125 36.25 C20.229375 36.1675 18.14625 36.085 16 36 C19.04049437 39.49354422 19.04049437 39.49354422 24.75 40.875 C32.39156897 43.96801601 31.08324126 51.68516472 22.9375 49.875 C17.17945181 48.01884768 17.17945181 48.01884768 18 54 C13.2975 53.9690625 13.2975 53.9690625 8.5 53.9375 C-1.98453036 54.00647717 -6.39536028 59.73160835 5.125 60.3046875 C10.37528591 60.01821357 15.62529101 59.72654604 20.875 59.4296875 C37.74474993 61.00046779 21.57356827 69.01875953 12.78125 69.02734375 C8.38232422 69.03604492 8.38232422 69.03604492 3.89453125 69.04492188 C0.79433594 69.00947266 -2.30585938 68.97402344 -5.5 68.9375 C-10.15029297 68.97133789 -10.15029297 68.97133789 -14.89453125 69.00585938 C-17.54484429 68.99362716 -52.77915009 65.92638336 -35 60 C-28.71219982 60.12850332 -22.42962941 60.32618196 -16.14453125 60.55078125 C1.89140446 58.61982686 -24.33158579 53.9627078 -30 54 C-30 52.35 -30 50.7 -30 49 C-31.98 49.66 -33.96 50.32 -36 51 C-47.02923431 51 -40.80707723 43.55265396 -34 41 C-32.35 40.01 -30.7 39.02 -29 38 C-28.34 38 -27.68 38 -27 38 C-26.66691294 34.90305464 -26.66691294 34.90305464 -33.5 36.25 C-51.79611689 35.5463032 -30.81480132 29.7701529 -23 30 C-22.66720342 27.06294599 -22.66720342 27.06294599 -28.5 28.3125 C-41.85007573 27.55397297 -31.5817216 20.60992175 -23 21 C-22.50012908 17.07173592 -22.50012908 17.07173592 -28.5 18.125 C-34 18 -34 18 -34 13 C-35.98 13 -37.96 13 -40 13 C-42.62740283 -0.59680966 -38.83222975 -1.46750939 -26 -0.5 C-17.68037984 0.06124422 0 -11.08997471 0 0 Z "
     transform="translate(293,682)"
     style="fill: #090808;"
     id="path6" />
  <path
     d="M0 0 C-0.69429284 8.00880511 -0.69429284 8.00880511 8.25390625 5.23828125 C22.52533755 7.4727322 18.12090674 20.89944943 17.5625 33.1875 C17.52382813 35.72115234 17.48515625 38.25480469 17.4453125 40.86523438 C17.14538357 53.10689879 0.58335701 84.6668561 -2.6875 58.5 C-0.3775 57.84 1.9325 57.18 4.3125 56.5 C7.46684575 53.34565425 6.07898621 40.33048682 6.25 35.4375 C6.34345703 33.53419922 6.43691406 31.63089844 6.53320312 29.66992188 C8.63006565 18.49109903 8.63006565 18.49109903 0.3125 15.5 C0.16840847 20.83138651 0.20217878 26.1678078 0.3125 31.5 C-1.20134874 44.36771426 -4.78002146 73.64448713 -21.6875 63.5 C-21.0275 61.52 -20.3675 59.54 -19.6875 57.5 C-22.6575 58.49 -25.6275 59.48 -28.6875 60.5 C-34.62967819 61.74371171 -68.54075966 59.78441989 -49.6875 53.5 C-49.70932059 49.38069311 -49.91721254 45.26231039 -50.1953125 41.15234375 C-51.69764446 7.8092742 -22.63308554 -43.11158306 -17.68359375 9.109375 C-17.34959391 20.74384197 -17.88685262 32.33002926 -18.77319336 43.93188477 C-18.51862489 57.50234264 -10.6387022 22.28289381 -10.6875 15.5 C-12.6675 15.5 -14.6475 15.5 -16.6875 15.5 C-16.6875 6.5 -16.6875 6.5 -10.6875 6.5 C-10.8421875 3.2825 -10.8421875 3.2825 -11 0 C-10.48827607 -10.64385765 0.54398031 -11.31479052 0 0 Z "
     transform="translate(756.6875,683.5)"
     style="fill: #060606;"
     id="path7" />
  <path
     d="M0 0 C8.11011438 0.4123787 16.07457525 -0.09237624 24.18359375 -0.47265625 C43.47622986 0.86511393 21.89386952 7.54380036 13.0625 7.125 C0.63329235 4.98009486 0.63329235 4.98009486 -6 12 C-0.3483312 11.86164089 5.29891536 11.53349331 10.9375 11.125 C28.32501907 10.73781401 31.57385112 12.89248767 28 31 C29.32 31 30.64 31 32 31 C32 38 32 38 28 38 C26.20267014 46.75621993 26.20267014 46.75621993 31 51 C31 58 31 58 27 58 C26.67 59.98 26.34 61.96 26 64 C18.3007624 71.6992376 7 72.33611681 7 60 C9.97 60 12.94 60 16 60 C16 55.60113629 3.34783253 57.90620413 0.5625 57.9375 C-16.0289977 58.10916192 -16.0289977 58.10916192 -15.75 47.4375 C-16.06913811 35.39003633 -20.46552082 33.72416655 -22 46 C-26.03656307 68.99085923 -26.03656307 68.99085923 -38 66 C-37.16507359 61.59158858 -36.29424622 57.18506815 -35.19140625 52.8359375 C-33.81387045 47.57390377 -33.81387045 47.57390377 -32.875 40.375 C-31 35 -31 35 -21 35 C-20.67 33.68 -20.34 32.36 -20 31 C-18.35 31 -16.7 31 -15 31 C-13.02808841 21.1925267 -13.02808841 21.1925267 -20 17 C-21 12 -21 12 -16 6 C-15.13375 3.710625 -14.2675 1.42125 -13.375 -0.9375 C-9.22025025 -8.40066159 2.02715029 -12.16290174 0 0 Z "
     transform="translate(215,683)"
     style="fill: #070708;"
     id="path8" />
  <path
     d="M0 0 C5.26542819 0.24916758 10.37077241 -0.21505045 15.625 -0.60546875 C28.6026351 1.19054325 16.87869441 8.26859185 9 8 C8.16715049 13.94559178 8.16715049 13.94559178 14.5 12.8125 C25.75101702 13.1960574 21.0189503 20.87263121 12 22 C14.64 23.98 17.28 25.96 20 28 C18 32 18 32 16 35 C18.10117187 34.70222656 20.20234375 34.40445313 22.3671875 34.09765625 C49.29628528 30.82115905 52.86272737 43.8718598 46 69 C36 69 36 69 36 67 C32.7515625 67.39058594 29.503125 67.78117188 26.15625 68.18359375 C-5.16234043 71.59685111 -15.3712212 69.88726276 -9 35 C-9.99 35.66 -10.98 36.32 -12 37 C-26.44719912 37 -10.00991592 23.66997197 -5 22 C-4.67661917 19.23197052 -4.67661917 19.23197052 -9 21 C-21.03257759 21 -20.95927783 13.03093186 -9 12.9375 C-6.36 12.958125 -3.72 12.97875 -1 13 C-1 2.49692499 -3.9216013 5.20266884 -8 12 C-19.06627655 12 -16.86462796 6.78340474 -12 -1 C-8.62881469 -7.74237063 0 -9.20736417 0 0 Z "
     transform="translate(571,682)"
     style="fill: #090909;"
     id="path9" />
  <path
     d="M0 0 C1.32 0 2.64 0 4 0 C4 7 4 7 0 7 C-1.29656614 18.77075346 -1.29656614 18.77075346 4 27 C4 34 4 34 -1 34 C-1 36.31 -1 38.62 -1 41 C-9.27538602 47.62030882 -18 49.54634857 -18 37 C-14.535 36.505 -14.535 36.505 -11 36 C-8.657567 31.31513401 -20.4909803 33.90569611 -22.875 33.9375 C-41.22380164 34.16318045 -37.05850737 30.00341892 -36.7421875 12.65234375 C-36.0797454 6.50051929 -36.0797454 6.50051929 -40 7 C-40 0 -40 0 -37 0 C-37.24878906 -1.876875 -37.49757813 -3.75375 -37.75390625 -5.6875 C-41.45665763 -39.17325164 5.96252247 -38.75639603 0 0 Z "
     transform="translate(395,706)"
     style="fill: #040404;"
     id="path10" />
  <path
     d="M0 0 C-1.76472656 -0.01160156 -3.52945313 -0.02320313 -5.34765625 -0.03515625 C-7.56355469 -0.04417969 -9.77945313 -0.05320312 -12.0625 -0.0625 C-15.39021484 -0.11083984 -15.39021484 -0.11083984 -18.78515625 -0.16015625 C-33.62984751 3.14237057 -21.63181105 11.92370394 -11.5 11.0625 C-1.37713689 10.21330426 9.85424008 19.14619828 -4.46875 20.52734375 C-9.15646765 20.13409633 -13.84396905 19.73826263 -18.53125 19.33984375 C-34.71750403 21.29375584 -19.85739118 30.82144677 -9.5 30.0625 C5 29.01388889 5 29.01388889 5 39 C-1.34375 39.31640625 -1.34375 39.31640625 -9.5 38.5625 C-24.31002561 38.03126302 -26.90763008 39.53140799 -24 55 C-32.09333671 65.11667089 -44.82629377 67.28167805 -48 53 C-43.1875 52 -43.1875 52 -38 52 C-25.92796903 39.92796903 -43.10261466 38.19481194 -50.9375 38.8125 C-61.7961053 39.63929736 -76.5444187 30.84731936 -59.4375 29.47265625 C-53.81231824 29.86589812 -48.18731706 30.26173171 -42.5625 30.66015625 C-27.28556363 29.1233692 -36.85920578 18.94803249 -48.5 19.9375 C-58.82298784 20.80348398 -69.79606054 11.8155688 -55.3125 10.47265625 C-50.43729061 10.86590231 -45.56228926 11.26173597 -40.6875 11.66015625 C-25.1439684 9.85599633 -37.78275266 0.07010385 -48.5 0.875 C-59.38082065 1.66979245 -71.53201176 -5.8233305 -54.46875 -7.9296875 C-51.1790625 -7.91164063 -47.889375 -7.89359375 -44.5 -7.875 C-32.44726789 -7.86543434 -20.93219754 -8.25665945 -9 -10 C-4.41345087 -10.6552213 12.27231991 -12.27231991 0 0 Z "
     transform="translate(846,689)"
     style="fill: #080808;"
     id="path11" />
  <path
     d="M0 0 C2.84238281 -0.01160156 5.68476563 -0.02320313 8.61328125 -0.03515625 C11.61808594 -0.00035156 14.62289062 0.03445313 17.71875 0.0703125 C22.22595703 0.01810547 22.22595703 0.01810547 26.82421875 -0.03515625 C31.08779297 -0.01775391 31.08779297 -0.01775391 35.4375 0 C38.07685547 0.01015137 40.71621094 0.02030273 43.43554688 0.03076172 C51.71939266 1.69886136 54.02762424 10.78981618 43.53125 9.4921875 C41.118125 8.98171875 38.705 8.47125 36.21875 7.9453125 C13.67482986 6.60533266 12.90618201 50.97148226 29.7421875 57.8671875 C37.73459245 57.61912078 37.73459245 57.61912078 45.77734375 55.8984375 C56.33799179 54.74566816 56.773671 63.54886467 46.81469727 65.35986328 C43.83494873 65.37001465 40.8552002 65.38016602 37.78515625 65.390625 C32.9753418 65.40802734 32.9753418 65.40802734 28.06835938 65.42578125 C25.5395813 65.39750244 25.5395813 65.39750244 22.9597168 65.36865234 C17.80600046 65.32054354 12.65935235 65.36807909 7.50585938 65.42578125 C4.29802734 65.41417969 1.09019531 65.40257812 -2.21484375 65.390625 C-5.19572021 65.38047363 -8.17659668 65.37032227 -11.24780273 65.35986328 C-20.37966013 63.73216029 -22.80617227 54.63836299 -11.4375 55.8984375 C-7.40015625 56.66414062 -7.40015625 56.66414062 -3.28125 57.4453125 C19.67779211 58.66437668 22.92380449 15.70167926 5.5390625 7.5234375 C-1.3665685 7.77468728 -1.3665685 7.77468728 -8.3125 9.4921875 C-22.03219363 11.25614811 -10.6290562 0.04088099 0 0 Z "
     transform="translate(495.78125,681.8046875)"
     style="fill: #090909;"
     id="path12" />
  <path
     d="M0 0 C0.29337908 21.07697106 12.91009175 37.208936 29.07421875 49.33203125 C21.95497412 70.68976513 3.09640762 42.42358693 -1.98828125 32.01953125 C-8.65328945 22.39229718 -9.14325978 30.36882815 -12.92578125 38.33203125 C-16.91126558 43.12616458 -49.99815269 70.47677414 -38.92578125 48.33203125 C-35.86296875 45.33109375 -35.86296875 45.33109375 -32.73828125 42.26953125 C-17.49153679 26.74303001 -13.40032391 11.2014185 -13.26171875 -10.19921875 C-8.38169683 -26.52303475 0.01888254 -8.93143936 0 0 Z "
     transform="translate(443.92578125,691.66796875)"
     style="fill: #060606;"
     id="path13" />
  <path
     d="M0 0 C-0.85126043 7.07446981 -0.85126043 7.07446981 6.0703125 5.51953125 C15.7017233 6.2838303 13.47303799 10.99960162 13.125 19.6875 C13.0321875 23.49861328 13.0321875 23.49861328 12.9375 27.38671875 C12.15183967 34.7485071 10.46549951 41.00209522 8.125 48 C7.65359548 52.94280904 7.65359548 52.94280904 14.125 58 C14.125 61 14.125 61 11.125 64 C10.795 64.66 10.465 65.32 10.125 66 C1.125 61.5 1.125 61.5 1.125 58 C-1.47128479 57.7018576 -1.47128479 57.7018576 -2.875 62 C-16.99648663 74.10413139 -14.19593054 59.75800102 -6.875 52 C-5.29892949 48.66172227 -5.29892949 48.66172227 -8.8125 45.25 C-13.80925764 36.68412975 -12.25216262 28.20588231 -11.125 18.625 C-10.08899917 13.50104493 -10.08899917 13.50104493 -14.875 13 C-14.875 5 -14.875 5 -9.875 5 C-9.978125 3.185 -10.08125 1.37 -10.1875 -0.5 C-9.6466001 -10.01983831 0.20844388 -10.00530625 0 0 Z "
     transform="translate(341.875,683)"
     style="fill: #090909;"
     id="path14" />
  <path
     d="M0 0 C-5.20215439 8.67025731 -17 10.3149185 -17 -2 C-14.69 -2 -12.38 -2 -10 -2 C-10 -12.81989321 -21.93098319 -11.86494136 -22.125 -1 C-22.08375 1.31 -22.0425 3.62 -22 6 C-67.30638177 6 -6.98546719 -85.55737711 0 0 Z "
     transform="translate(664,745)"
     style="fill: #080808;"
     id="path15" />
  <path
     d="M0 0 C-3.8374171 5.38774397 -3.8374171 5.38774397 5.625 5.3125 C4.965 4.3225 4.305 3.3325 3.625 2.3125 C7.25866239 -12.22214956 16.54698823 6.11747056 18.625 11.3125 C18.64761727 7.91667808 18.61265871 4.52052679 18.5625 1.125 C18.98054684 -12.65236977 30.625 -17.63653964 30.625 0.3125 C37.64558426 -1.88543757 37.64558426 -1.88543757 44.625 -5.6875 C56.80113897 -9.74621299 45.8450313 4.20248435 41.625 6.3125 C39.645 6.725 37.665 7.1375 35.625 7.5625 C22.15371304 12.27745044 33.32387922 18.76580012 42.625 17.3125 C42.625 15.0025 42.625 12.6925 42.625 10.3125 C56.03031509 3.60984246 53.36955254 19.56794746 47.625 25.3125 C43.66938057 25.49230088 39.70945584 25.58069513 35.75 25.625 C32.47449219 25.68107422 32.47449219 25.68107422 29.1328125 25.73828125 C20.67879253 25.08474354 20.78687218 22.44560525 19.625 14.3125 C17.645 15.3025 17.645 15.3025 15.625 16.3125 C10.625 16.3125 10.625 16.3125 9.625 14.3125 C2.93137631 14.41377904 -3.74276625 14.71055653 -10.4296875 15.0234375 C-17.13733574 14.22134027 -24.04992662 8.64996331 -15.375 4.3125 C-13.869375 1.940625 -12.36375 -0.43125 -10.8125 -2.875 C-3.36903151 -12.20072489 10.45749736 -13.5226259 0 0 Z "
     transform="translate(647.375,686.6875)"
     style="fill: #0C0C0C;"
     id="path16" />
  <path
     d="M0 0 C7.50263012 9.71910552 3.44577142 -12.44430946 3.30859375 -17.39453125 C6.21324987 -39.60582365 14.43262549 -10.50018656 14.28515625 -1.40625 C14.33736328 1.81318359 14.33736328 1.81318359 14.390625 5.09765625 C14.23735119 31.92057328 0.04615423 19.26386948 -8.4375 3.1640625 C-17.86427003 -14.3150515 -15.83984375 4.33160795 -15.83984375 14.59765625 C-15.83984375 32.50580005 -27.02809084 17.46939926 -27.11914062 5.7421875 C-27.08884766 3.54820312 -27.05855469 1.35421875 -27.02734375 -0.90625 C-27.07052734 -3.10023438 -27.11371094 -5.29421875 -27.15820312 -7.5546875 C-27.14982422 -9.63007812 -27.14144531 -11.70546875 -27.1328125 -13.84375 C-27.12544067 -16.73447266 -27.12544067 -16.73447266 -27.11791992 -19.68359375 C-21.25823404 -39.0435034 -3.4080904 -6.12970888 0 0 Z "
     transform="translate(796.83984375,821.90625)"
     style="fill: #0A0A0A;"
     id="path17" />
  <path
     d="M0 0 C4.21863128 6.32794692 4.74349387 1.88475919 9 -4.5 C24.96653216 -24.45816521 26.47470436 -3.77448556 26.1875 10.5 C26.21779297 12.64628906 26.24808594 14.79257812 26.27929688 17.00390625 C26.19817062 27.22581384 17.54300918 44.97021656 15.11328125 26.12109375 C15.17902344 23.25550781 15.24476563 20.38992188 15.3125 17.4375 C16.03267399 2.23079044 16.03267399 2.23079044 9 12 C1.16204478 19.83795522 -4.4340818 10.1318364 -8 3 C-8.1229175 10.7683861 -8.0543208 18.52809058 -7.97265625 26.296875 C-11.4431364 48.94076832 -19.31630953 19.62629257 -19.1875 10.5 C-19.23068359 8.35371094 -19.27386719 6.20742188 -19.31835938 3.99609375 C-19.23359021 -16.544128 -9.28245696 -16.41005785 0 0 Z "
     transform="translate(456,810)"
     style="fill: #040404;"
     id="path18" />
  <path
     d="M0 0 C1.20625621 16.66826766 21.12769191 16.59090248 22.4375 0 C22.06625 -4.7025 22.06625 -4.7025 21.6875 -9.5 C36.51698662 -9.5 32.04754921 1.00303195 31.875 13.5 C31.91818359 15.69398438 31.96136719 17.88796875 32.00585938 20.1484375 C31.99329102 23.26152344 31.99329102 23.26152344 31.98046875 26.4375 C31.97309692 29.32822266 31.97309692 29.32822266 31.96557617 32.27734375 C28.55902377 43.53230656 20.61804514 37.55571387 21.3125 27 C19.82341528 4.36591219 -0.67850628 15.7367046 0.6875 36.5 C-10.58173077 36.5 -10.58173077 36.5 -10.640625 26.4375 C-10.65351563 24.36210938 -10.66640625 22.28671875 -10.6796875 20.1484375 C-10.64101563 17.95445312 -10.60234375 15.76046875 -10.5625 13.5 C-10.60117187 11.30601562 -10.63984375 9.11203125 -10.6796875 6.8515625 C-10.66679687 4.77617188 -10.65390625 2.70078125 -10.640625 0.5625 C-10.6293457 -1.36464844 -10.61806641 -3.29179688 -10.60644531 -5.27734375 C-7.17244767 -16.4838387 0.7696666 -10.63539305 0 0 Z "
     transform="translate(355.3125,807.5)"
     style="fill: #0D0D0D;"
     id="path19" />
  <path
     d="M0 0 C2.76632812 -0.08378906 5.53265625 -0.16757812 8.3828125 -0.25390625 C28.99432805 2.33803524 3.76034319 9.10386193 -4.55859375 8.84375 C-23.98621409 11.35229887 -0.97366933 18.40656617 6.875 18.5625 C29.66870917 29.95935458 11.21922989 46.85013114 -6.375 47.25 C-8.93765625 47.33636719 -11.5003125 47.42273438 -14.140625 47.51171875 C-29.63283177 45.05440397 -17.35696861 36.47621361 -7.6875 36.5625 C-5.37878906 36.5625 -3.07007813 36.5625 -0.69140625 36.5625 C1.14550781 36.5625 2.98242188 36.5625 4.875 36.5625 C13.72999079 27.70750921 -1.92252029 28.28692485 -4.375 28.1875 C-31.44477687 26.45225789 -24.08353549 0.52844359 0 0 Z "
     transform="translate(570.125,797.4375)"
     style="fill: #0A0A0A;"
     id="path20" />
  <path
     d="M0 0 C2.56265625 -0.07476563 5.1253125 -0.14953125 7.765625 -0.2265625 C27.90031385 2.63855641 2.01740137 9.09021172 -5.78125 8.80859375 C-18.83704043 10.75763675 -10.61542538 19.67680822 -1.0625 19.4375 C21.31971937 19.02555731 21.66287784 45.25086595 0.13671875 47.234375 C-2.40402344 47.28078125 -4.94476562 47.3271875 -7.5625 47.375 C-11.39294922 47.49101563 -11.39294922 47.49101563 -15.30078125 47.609375 C-31.14692564 44.98742596 -17.97497476 36.69869202 -8.25 37 C4.56588946 37.91247902 4.56588946 37.91247902 3.75 28.625 C0.718125 28.5425 -2.31375 28.46 -5.4375 28.375 C-33.67221708 26.21693245 -23.57276556 0.45240661 0 0 Z "
     transform="translate(613.25,797.375)"
     style="fill: #080809;"
     id="path21" />
  <path
     d="M0 0 C1.31291016 3.86332031 1.31291016 3.86332031 2.65234375 7.8046875 C3.44769531 10.22039063 4.24304688 12.63609375 5.0625 15.125 C6.17818359 17.85136719 6.17818359 17.85136719 7.31640625 20.6328125 C11.67719058 31.85183259 5.49475954 39.08997927 -2 27.3125 C-3.9375 22.125 -3.9375 22.125 -3.9375 19.125 C-15.95670558 16.80242033 -15.95670558 16.80242033 -20.9375 25.125 C-28.24278281 42.17065989 -34.40351471 29.63377591 -29.25 16.6875 C-26.60660164 10.01970934 -24.02964095 3.40578655 -21.79296875 -3.41015625 C-15.57575441 -21.7214886 -4.94734604 -15.01314932 0 0 Z "
     transform="translate(535.9375,811.875)"
     style="fill: #080909;"
     id="path22" />
  <path
     d="M0 0 C0.85980469 2.25457031 1.71960938 4.50914062 2.60546875 6.83203125 C3.45753906 9.13558594 4.30960937 11.43914063 5.1875 13.8125 C6.04730469 16.12894531 6.90710938 18.44539062 7.79296875 20.83203125 C12.2863139 33.38953919 5.59059486 43.18118972 -1.6875 28.625 C-3 23 -3 23 -3 21 C-16.48821128 18.61169763 -16.48821128 18.61169763 -21 30 C-24.15612008 39.46836023 -32.41992072 34.88964323 -30 24 C-28.59686018 20.04249561 -27.13415989 16.1058005 -25.625 12.1875 C-23.21744477 5.91899919 -20.93924422 -0.21122223 -19.08203125 -6.66796875 C-13.00538173 -22.23011995 -3.28242165 -9.08695962 0 0 Z "
     transform="translate(253,810)"
     style="fill: #080808;"
     id="path23" />
  <path
     d="M0 0 C0.07883971 11.35291854 0.79703918 10.79910138 11.0625 9 C14.0325 9.33 17.0025 9.66 20.0625 10 C20.0625 6.885625 20.0625 3.77125 20.0625 0.5625 C20.0625 -20.55278939 30.22066483 -5.65709247 30.29296875 6.99609375 C30.25816406 9.14238281 30.22335938 11.28867187 30.1875 13.5 C30.23970703 16.71943359 30.23970703 16.71943359 30.29296875 20.00390625 C30.2015625 36 30.2015625 36 20.0625 36 C20.4028125 31.545 20.4028125 31.545 20.75 27 C19.11762768 5.63076235 -1.33720999 15.84417613 0.0625 36 C-15.70735122 36 -11.41845137 26.31780105 -11.1875 13.5 C-11.24550781 10.28056641 -11.24550781 10.28056641 -11.3046875 6.99609375 C-11.22263875 -5.92658448 0.14226405 -20.48602384 0 0 Z "
     transform="translate(186.9375,807)"
     style="fill: #0B0B0B;"
     id="path24" />
  <path
     d="M0 0 C3.95613281 -0.04447266 3.95613281 -0.04447266 7.9921875 -0.08984375 C28.15092253 3.28706537 2.91496037 8.91713012 -5.40625 8.2421875 C-18.9991713 9.97043035 -10.26061874 20.11213911 -0.125 19.8125 C22.48595182 19.31587703 22.04972427 45.58228639 0.4140625 47.546875 C-3.37964844 47.61648438 -3.37964844 47.61648438 -7.25 47.6875 C-9.79460938 47.76484375 -12.33921875 47.8421875 -14.9609375 47.921875 C-30.86853559 45.27411098 -17.4341921 36.85602704 -7.9375 36.9375 C-5.53597656 36.9375 -3.13445313 36.9375 -0.66015625 36.9375 C1.24894531 36.9375 3.15804687 36.9375 5.125 36.9375 C15.40595344 26.65654656 -7.91769349 28.65032922 -10.92578125 28.609375 C-32.82669922 25.63624328 -18.64042705 -0.06415093 0 0 Z "
     transform="translate(671.875,797.0625)"
     style="fill: #080808;"
     id="path25" />
  <path
     d="M0 0 C1.05960937 3.40119141 1.05960937 3.40119141 2.140625 6.87109375 C2.81609375 9.09988281 3.4915625 11.32867188 4.1875 13.625 C5.50399756 17.11859446 6.85285288 20.60036944 8.25 24.0625 C13.43603557 37.41378306 3.03095921 38.2073129 -1 28.1875 C-4.74406586 20.78256975 -17.68129454 15.96897268 -19.8125 26.625 C-22.20084794 34.9842178 -33.80778539 39.59671233 -31.8125 27.625 C-29.70650922 22.17602596 -27.41538324 16.81868496 -25.1328125 11.44140625 C-23.05903911 6.24300798 -21.5087165 1.12988429 -20 -4.25 C-13.4745939 -18.83620186 -3.56746819 -12.16281415 0 0 Z "
     transform="translate(422.8125,809.375)"
     style="fill: #070707;"
     id="path26" />
  <path
     d="M0 0 C1.03125 3.031875 2.0625 6.06375 3.125 9.1875 C4.07375 12.095625 5.0225 15.00375 6 18 C6.78375 20.145 7.5675 22.29 8.375 24.5 C12.30583837 35.38539857 1.40933271 33.61733218 -2.625 26.125 C-4 21 -4 21 -4 19 C-16.84301436 16.90622444 -16.84301436 16.90622444 -22 28 C-25.15612008 37.46836023 -33.41992072 32.88964323 -31 22 C-11.6381323 -35.18505113 -11.6381323 -35.18505113 0 0 Z "
     transform="translate(757,812)"
     style="fill: #060606;"
     id="path27" />
  <path
     d="M0 0 C-5.99512958 3.59707775 -9.20382763 3.34118804 -16.125 3.25 C-18.08695313 3.23453125 -20.04890625 3.2190625 -22.0703125 3.203125 C-62.20642504 1.54933906 17.51575082 -75.33990037 0 0 Z "
     transform="translate(623,711)"
     style="fill: #0D0D0D;"
     id="path28" />
  <path
     d="M0 0 C5.33759582 -1.96648267 9.46038182 -4.59528637 14 -8 C32.2415632 -8 5.53036926 7.89392615 0 9 C0 23.51275811 11.48483548 21.12131612 13 9 C33.09588181 11.23287576 18.42892692 26.28738499 5.625 26.4375 C3.76101563 26.47746094 1.89703125 26.51742187 -0.0234375 26.55859375 C-12.2133774 25.19033519 -10.81953143 15.66764068 -10.9375 5.6875 C-11.04384766 1.57861328 -11.04384766 1.57861328 -11.15234375 -2.61328125 C-9.00908624 -14.49201355 0 -12.13908328 0 0 Z "
     transform="translate(678,724)"
     style="fill: #070707;"
     id="path29" />
  <path
     d="M0 0 C6.43162231 9.64743346 6.82556338 3.37683601 10.625 -4.3125 C17.35015572 -13.65299405 27.13757583 -11.60908846 19.21484375 0.125 C12.86977674 9.56319264 9.29686585 16.21199791 9.3125 27.75 C8.64759885 47.43107416 -0.42766811 34.99398395 -0.4453125 22.5546875 C-1.36670979 13.32773715 -5.85869559 7.61904147 -11 0 C-20.32867348 -16.32517859 -4.78868672 -8.68645498 0 0 Z "
     transform="translate(279,807)"
     style="fill: #090809;"
     id="path30" />
  <path
     d="M0 0 C1.71703125 -0.0309375 3.4340625 -0.061875 5.203125 -0.09375 C18 -0.0125 18 -0.0125 18 9 C14.54466797 8.67515625 14.54466797 8.67515625 11.01953125 8.34375 C-0.6278961 9.43265807 2.84094401 18.03930488 3.6875 27.5 C5.1402027 46 5.1402027 46 -5 46 C-5.42286259 37.88730283 -4.9812284 30.22889377 -4.296875 22.15234375 C-3.64828894 9.02861018 -5.11671632 7.6961496 -18 9 C-18 -3.61588098 -10.25424084 -0.1847611 0 0 Z "
     transform="translate(833,797)"
     style="fill: #010101;"
     id="path31" />
  <path
     d="M0 0 C1.71703125 -0.0309375 3.4340625 -0.061875 5.203125 -0.09375 C18 -0.0125 18 -0.0125 18 9 C14.54466797 8.67515625 14.54466797 8.67515625 11.01953125 8.34375 C-0.6278961 9.43265807 2.84094401 18.03930488 3.6875 27.5 C5.1402027 46 5.1402027 46 -5 46 C-5.42286259 37.88730283 -4.9812284 30.22889377 -4.296875 22.15234375 C-3.64828894 9.02861018 -5.11671632 7.6961496 -18 9 C-18 -3.61588098 -10.25424084 -0.1847611 0 0 Z "
     transform="translate(710,797)"
     style="fill: #040303;"
     id="path32" />
  <path
     d="M0 0 C1.71703125 -0.0309375 3.4340625 -0.061875 5.203125 -0.09375 C18 -0.0125 18 -0.0125 18 9 C14.54466797 8.67515625 14.54466797 8.67515625 11.01953125 8.34375 C-0.6278961 9.43265807 2.84094401 18.03930488 3.6875 27.5 C5.1402027 46 5.1402027 46 -5 46 C-5.42286259 37.88730283 -4.9812284 30.22889377 -4.296875 22.15234375 C-3.64828894 9.02861018 -5.11671632 7.6961496 -18 9 C-18 -3.61588098 -10.25424084 -0.1847611 0 0 Z "
     transform="translate(324,797)"
     style="fill: #030303;"
     id="path33" />
  <path
     d="M0 0 C0.03480469 2.14628906 0.06960938 4.29257812 0.10546875 6.50390625 C-0.01453678 27.50487461 -11.23546322 27.50487461 -11.35546875 6.50390625 C-11.30326172 3.28447266 -11.30326172 3.28447266 -11.25 0 C-11.28480469 -2.14628906 -11.31960938 -4.29257812 -11.35546875 -6.50390625 C-11.19408615 -34.74586128 0.31343765 -19.32865534 0 0 Z "
     transform="translate(645.125,820.5)"
     style="fill: #010101;"
     id="path34" />
  <path
     d="M0 0 C-17.05038722 5.01481977 -22.88156659 -4.56421438 -17 -20 C0.05038722 -25.01481977 5.88156659 -15.43578562 0 0 Z "
     transform="translate(385,706)"
     style="fill: #D2D2D3;"
     id="path35" />
  <path
     d="M0 0 C-5.3442455 14.38156631 -18.52822166 4.54527214 -19.78125 -6.10546875 C-17.27629324 -27.11927269 1.27345719 -17.37534373 0 0 Z "
     transform="translate(386.65625,728.54296875)"
     style="fill: #DDDDDC;"
     id="path36" />
  <path
     d="M0 0 C-11.77105984 3.11803936 -29.10299964 3.78890824 -22 -13 C-10.22894016 -16.11803936 7.10299964 -16.78890824 0 0 Z "
     transform="translate(232,734)"
     style="fill: #E0E0E0;"
     id="path37" />
  <path
     d="M0 0 C-12.38097803 3.19477786 -25.83626706 4.17903933 -22 -12 C-13.08188164 -20.91811836 5.7986419 -14.02462226 0 0 Z "
     transform="translate(232,714)"
     style="fill: #DDDDDE;"
     id="path38" />
  <path
     d="M0 0 C-11.93953016 2.03845637 -14.46374848 -3.39124545 -18 -14 C-6.50775336 -19.74612332 0 -10.45605792 0 0 Z "
     transform="translate(195,713)"
     style="fill: #0C0C0C;"
     id="path39" />
  <path
     d="M0 0 C3.0628125 -0.01289062 6.125625 -0.02578125 9.28125 -0.0390625 C28.85270304 1.76134173 6.81362222 6.27867686 0 6.25 C-3.0628125 6.26289062 -6.125625 6.27578125 -9.28125 6.2890625 C-28.85270304 4.48865827 -6.81362222 -0.02867686 0 0 Z "
     transform="translate(589.5,736.375)"
     style="fill: #DCDBDA;"
     id="path40" />
  <path
     d="M0 0 C3.0628125 -0.01289062 6.125625 -0.02578125 9.28125 -0.0390625 C28.85270304 1.76134173 6.81362222 6.27867686 0 6.25 C-3.0628125 6.26289062 -6.125625 6.27578125 -9.28125 6.2890625 C-28.85270304 4.48865827 -6.81362222 -0.02867686 0 0 Z "
     transform="translate(589.5,723.375)"
     style="fill: #E9E7E7;"
     id="path41" />
  <path
     d="M0 0 C-11.0507968 0 -20.99927741 -12.25018065 -6 -16 C-0.85452202 -16 5.76514028 -2.88257014 0 0 Z "
     transform="translate(192,694)"
     style="fill: #0E0D0D;"
     id="path42" />
  <path
     d="M0 0 C-13.62863204 0 -10.54926592 -5.29443525 -9 -17 C4.62863204 -17 1.54926592 -11.70556475 0 0 Z "
     transform="translate(612,706)"
     style="fill: #E8E8E9;"
     id="path43" />
  <path
     d="M0 0 C2.12050781 -0.00644531 4.24101562 -0.01289062 6.42578125 -0.01953125 C9.78830078 0.00947266 9.78830078 0.00947266 13.21875 0.0390625 C15.46042969 0.01972656 17.70210938 0.00039063 20.01171875 -0.01953125 C23.19248047 -0.00986328 23.19248047 -0.00986328 26.4375 0 C28.40654297 0.00563965 30.37558594 0.0112793 32.40429688 0.01708984 C40.93774364 1.29672056 37.41058855 5.6640625 29.71875 5.6640625 C29.71875 4.3440625 29.71875 3.0240625 29.71875 1.6640625 C20.85956493 -0.22678824 20.85956493 -0.22678824 17.71875 5.6640625 C6.71875 6.6640625 6.71875 6.6640625 6.71875 1.6640625 C-3.94791667 -0.00260417 -3.94791667 -0.00260417 -3.28125 5.6640625 C-17.79543241 5.6640625 -8.10511206 0.02321431 0 0 Z "
     transform="translate(274.28125,688.3359375)"
     style="fill: #EDEDED;"
     id="path44" />
  <path
     d="M0 0 C0.99 0.99 1.98 1.98 3 3 C3 8.5952381 -6 5.11904762 -6 -1 C-14.87393804 -2.91972413 -14.87393804 -2.91972413 -17 4 C-36.11328733 4 -10.98280424 -13.7285053 0 0 Z "
     transform="translate(299,724)"
     style="fill: #DDDDDD;"
     id="path45" />
  <path
     d="M0 0 C-10.08697252 1.40748454 -12.38851003 0.27303148 -13 -10 C-13 -23.59382106 0 -8.25868647 0 0 Z "
     transform="translate(384,730)"
     style="fill: #121211;"
     id="path46" />
  <path
     d="M0 0 C-12.19508548 0 -11 -2.83501809 -11 -14 C1.19508548 -14 0 -11.16498191 0 0 Z "
     transform="translate(382,703)"
     style="fill: #0E0E0E;"
     id="path47" />
  <path
     d="M0 0 C-0.103125 2.31 -0.20625 4.62 -0.3125 7 C-2.1964847 23.44204833 -5.1349543 11.37923213 -5.125 2.5 C-5.12757813 0.2003125 -5.13015625 -2.099375 -5.1328125 -4.46875 C-4.82028776 -17.4844864 0.41978067 -8.47956957 0 0 Z "
     transform="translate(345,707)"
     style="fill: #DFDFDF;"
     id="path48" />
  <path
     d="M0 0 C-22 0 -22 0 -12 -10 C-2.4525526 -10 0 -9.85450468 0 0 Z "
     transform="translate(227,713)"
     style="fill: #0E0E0D;"
     id="path49" />
  <path
     d="M0 0 C-11.1445043 0 -11.06823184 -0.88864431 -9 -11 C2.1445043 -11 2.06823184 -10.11135569 0 0 Z "
     transform="translate(727,699)"
     style="fill: #DDDDDB;"
     id="path50" />
  <path
     d="M0 0 C0 8.72981527 -7.59615482 4.53846023 -11 0 C-15.22180732 -12.66542195 -3.44579502 -6.89159004 0 0 Z "
     transform="translate(227,729)"
     style="fill: #131314;"
     id="path51" />
  <path
     d="M0 0 C-3.87340508 0.12753171 -7.74951337 0.17589675 -11.625 0.1875 C-13.78289063 0.20167969 -15.94078125 0.21585938 -18.1640625 0.23046875 C-27.88008433 -0.23257268 -19.17553407 -2.91223296 -15 -5 C-11.32200683 -8.67799317 0 -8.64635702 0 0 Z "
     transform="translate(585,717)"
     style="fill: #DEDEDE;"
     id="path52" />
  <path
     d="M0 0 C-9 0 -9 0 -9 -10 C0 -10 0 -10 0 0 Z "
     transform="translate(727,717)"
     style="fill: #E2E2E1;"
     id="path53" />
  <path
     d="M0 0 C-1 1 -1 1 -9 1 C-9 -13.06042885 0 -14.15789474 0 0 Z "
     transform="translate(727,734)"
     style="fill: #DDDCDB;"
     id="path54" />
  <path
     d="M0 0 C-13.01908985 0 -9.80141261 -4.39717478 -5 -14 C-0.74573365 -11.87286682 0 -4.45077143 0 0 Z "
     transform="translate(247,823)"
     style="fill: #D9D9D7;"
     id="path55" />
  <path
     d="M0 0 C-13.17871097 0 -11.06416771 -0.72668718 -7 -11 C-2.56408723 -17.65386916 -0.64776497 -4.10251149 0 0 Z "
     transform="translate(529,823)"
     style="fill: #DADDDB;"
     id="path56" />
  <path
     d="M0 0 C-11.74462225 0 -9.9432714 -0.49096934 -7 -10 C-4.07238519 -21.71045922 0 -3.68869787 0 0 Z "
     transform="translate(750,823)"
     style="fill: #DEE0DE;"
     id="path57" />
  <path
     d="M0 0 C-13.42112366 0 -8.74242823 -2.77271531 -5 -14 C-1.54807027 -9.39742703 0 -5.80018995 0 0 Z "
     transform="translate(416,823)"
     style="fill: #DADDDA;"
     id="path58" />
  <path
     d="M0 0 C-5.18874707 0 -7.03789394 -5.09989369 -10 -9 C-16.432687 -15.84873029 -16.432687 -15.84873029 -22.5 -19.8125 C-33.49708004 -27.60209836 -5.5377176 -9.31957352 0 0 Z "
     transform="translate(582,445)"
     style="fill: #B03B3E;"
     id="path59" />
  <path
     d="M0 0 C-12 1.25 -12 1.25 -12 -5 C0 -6.25 0 -6.25 0 0 Z "
     transform="translate(654,729)"
     style="fill: #E2E0E1;"
     id="path60" />
  <path
     d="M0 0 C-12 1.25 -12 1.25 -12 -5 C0 -6.25 0 -6.25 0 0 Z "
     transform="translate(654,717)"
     style="fill: #CACBCD;"
     id="path61" />
  <path
     d="M0 0 C0.33 0.66 0.66 1.32 1 2 C-9.34888458 2 -5.89034098 -27.14678888 0 0 Z "
     transform="translate(374,703)"
     style="fill: #F7F7F5;"
     id="path62" />
  <path
     d="M0 0 C-13.67567568 1.33783784 -13.67567568 1.33783784 -7 -2 C-2.55336019 -9.41106635 0 -9.45544028 0 0 Z "
     transform="translate(570,695)"
     style="fill: #D7D5D5;"
     id="path63" />
  <path
     d="M0 0 C-12 0.75 -12 0.75 -12 -3 C0 -3.75 0 -3.75 0 0 Z "
     transform="translate(293,712)"
     style="fill: #D0D1D0;"
     id="path64" />
  <path
     d="M0 0 C-12 0.75 -12 0.75 -12 -3 C0 -3.75 0 -3.75 0 0 Z "
     transform="translate(293,703)"
     style="fill: #D8D9D9;"
     id="path65" />
  <path
     d="M0 0 C-10 0 -10 0 -10 -3 C0 -3 0 -3 0 0 Z "
     transform="translate(314,703)"
     style="fill: #D0D2D2;"
     id="path66" />
</svg>
