<?xml version="1.0" encoding="UTF-8"?>
<svg id="svg" display="block" version="1.1" viewBox="0 0 1024 1024" xmlns="http://www.w3.org/2000/svg">
<rect width="1024" height="1024" display="block" fill="#e0e0e0" stroke-width="10.24" style="paint-order:stroke fill markers"/>
<path transform="translate(714 150.7)" d="m0 0c3.695-0.02882 3.695-0.02882 7.465-0.05823 2.666-0.0085 5.331-0.017 8.078-0.02576 2.738-0.0114 5.475-0.0228 8.296-0.03455 5.799-0.01891 11.6-0.03197 17.4-0.03967 8.869-0.01941 17.74-0.08144 26.61-0.1445 5.63-0.01306 11.26-0.02356 16.89-0.03125 2.653-0.02469 5.307-0.04939 8.041-0.07483 3.723 0.009003 3.723 0.009003 7.522 0.01819 2.176-0.007291 4.352-0.01458 6.594-0.02209 22.99 2.749 26.39 18.63 26.43 38.97 0.01142 3.176 0.02284 6.351 0.03461 9.623 0.002491 3.524 0.004741 7.048 0.006775 10.57 0.009258 3.707 0.01931 7.415 0.03009 11.12 0.02624 10.07 0.03914 20.15 0.04802 30.22 0.005862 6.292 0.01407 12.58 0.02301 18.88 0.02734 19.68 0.04668 39.37 0.0544 59.05 0.008967 22.73 0.04409 45.46 0.102 68.19 0.0432 17.57 0.06341 35.13 0.06608 52.7 0.002098 10.49 0.01395 20.99 0.04964 31.48 0.03291 9.868 0.0373 19.74 0.01972 29.6-0.001543 3.622 0.00718 7.244 0.02692 10.87 0.02536 4.944 0.01013 9.888-0.007164 14.83 0.0044 4.15 0.0044 4.15 0.008888 8.385-2.059 20.02-15.58 27.61-34.64 27.61-2.373 0.006229-4.746 0.01246-7.19 0.01888-3.825-0.01381-3.825-0.01381-7.728-0.02791-2.629 4.985e-4 -5.259 9.97e-4 -7.968 0.001511-5.558-0.00234-11.12-0.01206-16.67-0.02861-8.513-0.02359-17.03-0.02056-25.54-0.01392-5.398-0.005577-10.8-0.01269-16.2-0.02148-2.55 9.114e-4 -5.1 0.001823-7.728 0.002762-3.559-0.0143-3.559-0.0143-7.19-0.02888-2.085-0.004607-4.169-0.009215-6.317-0.01396-25.62-1.198-29.82-18.16-29.84-40.44-0.007085-3.138-0.01417-6.276-0.02147-9.509 0.002294-3.476 0.004804-6.952 0.007507-10.43-0.004347-3.662-0.00953-7.323-0.01549-10.98-0.0134-9.944-0.01397-19.89-0.01144-29.83 0.001069-8.298-0.003812-16.6-0.008605-24.89-0.0111-19.57-0.01153-39.14-0.005486-58.72 0.006043-20.2-0.00628-40.4-0.02757-60.61-0.0176-17.34-0.02362-34.68-0.02036-52.02 0.001815-10.36-8.458e-4 -20.72-0.01471-31.08-0.01255-9.738-0.01066-19.48 0.002411-29.21 0.002371-3.576-3.888e-4 -7.152-0.008623-10.73-0.01042-4.877-5.905e-4 -9.754 0.01031-14.63-1.677e-4 -2.731-3.355e-4 -5.461-5.083e-4 -8.275 1.162-21.42 13.45-30.1 33.34-30.23z" fill="#1E1D1E"/>
<path transform="translate(209 150.7)" d="m0 0c2.47-0.01599 4.94-0.03197 7.484-0.04845 4.008-0.008044 4.008-0.008044 8.097-0.01625 2.742-0.009028 5.485-0.01806 8.31-0.02736 5.807-0.01452 11.61-0.02339 17.42-0.02708 8.891-0.0119 17.78-0.06107 26.67-0.1116 5.637-0.009464 11.27-0.0167 16.91-0.02148 3.996-0.0293 3.996-0.0293 8.072-0.05919 3.724 0.009117 3.724 0.009117 7.523 0.01842 2.18-0.005071 4.361-0.01014 6.607-0.01537 21.83 2.271 26.03 19.38 26.05 38.26 0.00571 3.146 0.01142 6.293 0.0173 9.534 0.001245 3.512 0.002371 7.023 0.003387 10.53 0.004627 3.679 0.009651 7.358 0.01505 11.04 0.01314 10.01 0.01957 20.03 0.02401 30.04 0.002928 6.253 0.007032 12.51 0.0115 18.76 0.01368 19.55 0.02334 39.11 0.0272 58.66 0.004482 22.59 0.02203 45.18 0.051 67.77 0.0216 17.45 0.0317 34.9 0.03304 52.34 0.001049 10.43 0.006985 20.85 0.02482 31.28 0.01645 9.808 0.01865 19.62 0.009861 29.43-7.721e-4 3.601 0.003595 7.203 0.01346 10.8 0.01267 4.914 0.005069 9.828-0.003582 14.74 0.001467 2.751 0.002933 5.502 0.004444 8.336-1.107 21.07-12.27 30.16-32.85 30.25-2.407 0.01284-4.813 0.02567-7.293 0.03889-2.613 0.007387-5.227 0.01477-7.92 0.02238-2.676 0.008072-5.352 0.01614-8.11 0.02446-5.674 0.01385-11.35 0.02457-17.02 0.03242-8.68 0.01721-17.36 0.06109-26.04 0.1052-5.506 0.01013-11.01 0.01864-16.52 0.02539-2.599 0.01751-5.199 0.03502-7.877 0.05305-2.429-0.002926-4.858-0.005851-7.36-0.008865-2.131 0.005866-4.262 0.01173-6.457 0.01778-23.25-1.913-28.04-16.77-28.09-37.4-0.01005-3.178-0.02009-6.357-0.03044-9.632-0.00603-3.543-0.01192-7.085-0.01767-10.63-0.009536-3.715-0.01943-7.43-0.02965-11.15-0.03141-12.22-0.05165-24.44-0.07021-36.66-0.004946-3.117-0.004946-3.117-0.009992-6.296-0.03078-19.59-0.05749-39.18-0.07442-58.77-0.02192-25.07-0.06391-50.14-0.1334-75.21-0.04721-17.62-0.07149-35.24-0.07876-52.86-0.004961-10.53-0.02008-21.06-0.05974-31.58-0.03682-9.905-0.04529-19.81-0.03199-29.71-5.402e-5 -3.635-0.01038-7.269-0.03175-10.9-0.02763-4.964-0.01461-9.927 4.349e-4 -14.89-0.004232-2.777-0.008464-5.555-0.01282-8.416 2.002-19.94 13.69-27.59 32.74-27.69z" fill="#0F0E0F"/>
<path transform="translate(463 150.6)" d="m0 0c3.675-0.02387 3.675-0.02387 7.424-0.04822 2.645-2.014e-4 5.29-4.028e-4 8.015-6.104e-4 2.719-0.007614 5.437-0.01523 8.238-0.02307 5.754-0.01081 11.51-0.01365 17.26-0.009155 8.809 9.715e-4 17.62-0.04063 26.43-0.08496 5.587-0.005207 11.17-0.007895 16.76-0.007812 3.958-0.02459 3.958-0.02459 7.996-0.04968 2.459 0.009305 4.918 0.01861 7.452 0.0282 2.16-0.002054 4.319-0.004109 6.544-0.006226 21.88 2.319 25.1 17.78 25.17 36.95 0.008324 1.651 0.01665 3.302 0.02522 5.003 0.02409 5.453 0.03287 10.91 0.03947 16.36 0.008962 3.781 0.01808 7.563 0.02736 11.34 0.01648 7.919 0.02419 15.84 0.02708 23.76 0.005407 10.18 0.04318 20.37 0.08874 30.55 0.02961 7.803 0.03698 15.61 0.03798 23.41 0.004228 3.758 0.01676 7.515 0.03752 11.27 0.02661 5.23 0.02218 10.46 0.009584 15.69 0.005071 2.983 0.01014 5.967 0.01537 9.041-0.9516 9.673-3.977 6.293-10.61 2.061-45.09-28.65-107-25.74-150 5.188-5.817-1.939-3.373-10.95-3.372-16.12-0.006229-3.274-0.01246-6.549-0.01888-9.922 0.00869-3.612 0.01801-7.224 0.02791-10.84 5.183e-4 -3.676 1.83e-6 -7.353-0.001511-11.03 8.994e-5 -7.724 0.01056-15.45 0.02861-23.17 0.02262-9.899 0.02324-19.8 0.01648-29.7-0.003344-7.601 0.0033-15.2 0.01313-22.8 0.003849-3.649 0.005001-7.298 0.003414-10.95-3.713e-4 -5.109 0.01374-10.22 0.0285-15.33 0.004607-2.908 0.009215-5.816 0.01396-8.813 0.7565-21.3 11.49-31.68 32.28-31.76z" fill="#2B2B2B"/>
<path transform="translate(594.2 488.1)" d="m0 0c0.03867 3.482 0.03867 3.482 0.07812 7.035-5.106 107.4-164.7 93.1-162.7-13.16 6.383-101.1 162-94.44 162.6 6.125z" fill="#C11518"/>
<path transform="translate(293,682)" d="m0 0c7.337 0.03743 14.56-0.5422 21.88-1.094 9.641 1.722 11.17 14.09 0.125 14.09v5c-3.666 0.08331-7.334 0.08331-11 0-0.4998 4.016-0.4998 4.016 6 2.812 15.26 0.4768 0.9948 6.418-7 6.188-0.4984 4.628-0.4984 4.628 9.5 2.25 11.81-0.3109 14.51 6.563 2.812 7-2.083-0.0825-4.166-0.165-6.312-0.25 3.04 3.494 3.04 3.494 8.75 4.875 7.642 3.093 6.333 10.81-1.812 9-5.758-1.856-5.758-1.856-4.938 4.125l-9.5-0.0625c-10.48 0.06898-14.9 5.794-3.375 6.367 5.25-0.2865 10.5-0.5781 15.75-0.875 16.87 1.571 0.6986 9.589-8.094 9.598-4.399 0.008701-4.399 0.008701-8.887 0.01758-3.1-0.03545-6.2-0.0709-9.395-0.1074-4.65 0.03384-4.65 0.03384-9.395 0.06836-2.65-0.01223-37.88-3.079-20.11-9.006 6.288 0.1285 12.57 0.3262 18.86 0.5508 18.04-1.931-8.187-6.588-13.86-6.551v-5c-1.98 0.66-3.96 1.32-6 2-11.03 0-4.807-7.447 2-10l5-3h2c0.3331-3.097 0.3331-3.097-6.5-1.75-18.3-0.7037 2.685-6.48 10.5-6.25 0.3328-2.937 0.3328-2.937-5.5-1.688-13.35-0.7585-3.082-7.703 5.5-7.312 0.4999-3.928 0.4999-3.928-5.5-2.875-5.5-0.125-5.5-0.125-5.5-5.125h-6c-2.627-13.6 1.168-14.47 14-13.5 8.32 0.5612 26-10.59 26 0.5z" fill="#090808"/>
<path transform="translate(756.7 683.5)" d="m0 0c-0.6943 8.009-0.6943 8.009 8.254 5.238 14.27 2.234 9.867 15.66 9.309 27.95-0.03867 2.534-0.07734 5.067-0.1172 7.678-0.2999 12.24-16.86 43.8-20.13 17.63l7-2c3.154-3.154 1.766-16.17 1.938-21.06 0.09346-1.903 0.1869-3.807 0.2832-5.768 2.097-11.18 2.097-11.18-6.221-14.17-0.1441 5.331-0.1103 10.67 0 16-1.514 12.87-5.093 42.14-22 32l2-6c-2.97 0.99-5.94 1.98-9 3-5.942 1.244-39.85-0.7156-21-7-0.02182-4.119-0.2297-8.238-0.5078-12.35-1.502-33.34 27.56-84.26 32.51-32.04 0.334 11.63-0.2033 23.22-1.09 34.82 0.2546 13.57 8.134-21.65 8.086-28.43h-6c0-9 0-9 6-9l-0.3125-6.5c0.5117-10.64 11.54-11.31 11 0z" fill="#060606"/>
<path transform="translate(215,683)" d="m0 0c8.11 0.4124 16.07-0.09238 24.18-0.4727 19.29 1.338-2.29 8.016-11.12 7.598-12.43-2.145-12.43-2.145-19.06 4.875 5.652-0.1384 11.3-0.4665 16.94-0.875 17.39-0.3872 20.64 1.767 17.06 19.88h4c0 7 0 7-4 7-1.797 8.756-1.797 8.756 3 13 0 7 0 7-4 7l-1 6c-7.699 7.699-19 8.336-19-4h9c0-4.399-12.65-2.094-15.44-2.062-16.59 0.1717-16.59 0.1717-16.31-10.5-0.3191-12.05-4.716-13.71-6.25-1.438-4.037 22.99-4.037 22.99-16 20 0.8349-4.408 1.706-8.815 2.809-13.16 1.378-5.262 1.378-5.262 2.316-12.46 1.875-5.375 1.875-5.375 11.88-5.375l1-4h5c1.972-9.807 1.972-9.807-5-14-1-5-1-5 4-11l2.625-6.938c4.155-7.463 15.4-11.23 13.38 0.9375z" fill="#070708"/>
<path transform="translate(571,682)" d="m0 0c5.265 0.2492 10.37-0.2151 15.62-0.6055 12.98 1.796 1.254 8.874-6.625 8.605-0.8328 5.946-0.8328 5.946 5.5 4.812 11.25 0.3836 6.519 8.06-2.5 9.188l8 6c-2 4-2 4-4 7 2.101-0.2978 4.202-0.5955 6.367-0.9023 26.93-3.276 30.5 9.774 23.63 34.9-10 0-10 0-10-2-3.248 0.3906-6.497 0.7812-9.844 1.184-31.32 3.413-41.53 1.704-35.16-33.18l-3 2c-14.45 0 1.99-13.33 7-15 0.3234-2.768 0.3234-2.768-4-1-12.03 0-11.96-7.969 0-8.062l8 0.0625c0-10.5-2.922-7.797-7-1-11.07 0-8.865-5.217-4-13 3.371-6.742 12-8.207 12 1z" fill="#090909"/>
<path transform="translate(395,706)" d="m0 0h4c0 7 0 7-4 7-1.297 11.77-1.297 11.77 4 20 0 7 0 7-5 7v7c-8.275 6.62-17 8.546-17-4 3.465-0.495 3.465-0.495 7-1 2.342-4.685-9.491-2.094-11.88-2.062-18.35 0.2257-14.18-3.934-13.87-21.29 0.6624-6.152 0.6624-6.152-3.258-5.652 0-7 0-7 3-7-0.2488-1.877-0.4976-3.754-0.7539-5.688-3.703-33.49 43.72-33.07 37.75 5.688z" fill="#040404"/>
<path transform="translate(846,689)" d="m0 0c-1.765-0.0116-3.529-0.0232-5.348-0.03516-2.216-0.009023-4.432-0.01805-6.715-0.02734-3.328-0.04834-3.328-0.04834-6.723-0.09766-14.84 3.303-2.847 12.08 7.285 11.22 10.12-0.8492 21.35 8.084 7.031 9.465-4.688-0.3932-9.375-0.7891-14.06-1.188-16.19 1.954-1.326 11.48 9.031 10.72 14.5-1.049 14.5-1.049 14.5 8.938-6.344 0.3164-6.344 0.3164-14.5-0.4375-14.81-0.5312-17.41 0.9689-14.5 16.44-8.093 10.12-20.83 12.28-24-2 4.812-1 4.812-1 10-1 12.07-12.07-5.103-13.81-12.94-13.19-10.86 0.8268-25.61-7.965-8.5-9.34 5.625 0.3932 11.25 0.7891 16.88 1.188 15.28-1.537 5.703-11.71-5.938-10.72-10.32 0.866-21.3-8.122-6.812-9.465 4.875 0.3932 9.75 0.7891 14.62 1.188 15.54-1.804 2.905-11.59-7.812-10.79-10.88 0.7948-23.03-6.698-5.969-8.805 3.29 0.01805 6.579 0.03609 9.969 0.05469 12.05 0.009566 23.57-0.3817 35.5-2.125 4.587-0.6552 21.27-2.272 9 10z" fill="#080808"/>
<path transform="translate(495.8 681.8)" d="m0 0c2.842-0.0116 5.685-0.0232 8.613-0.03516 3.005 0.0348 6.01 0.06961 9.105 0.1055 4.507-0.05221 4.507-0.05221 9.105-0.1055 4.264 0.0174 4.264 0.0174 8.613 0.03516 2.639 0.01015 5.279 0.0203 7.998 0.03076 8.284 1.668 10.59 10.76 0.0957 9.461-2.413-0.5105-4.826-1.021-7.312-1.547-22.54-1.34-23.31 43.03-6.477 49.92 7.992-0.2481 7.992-0.2481 16.04-1.969 10.56-1.153 11 7.65 1.037 9.461-2.98 0.01015-5.959 0.0203-9.03 0.03076-4.81 0.0174-4.81 0.0174-9.717 0.03516-2.529-0.02828-2.529-0.02828-5.109-0.05713-5.154-0.04811-10.3-5.732e-4 -15.45 0.05713-3.208-0.0116-6.416-0.0232-9.721-0.03516-2.981-0.01015-5.962-0.0203-9.033-0.03076-9.132-1.628-11.56-10.72-0.1897-9.461 4.037 0.7657 4.037 0.7657 8.156 1.547 22.96 1.219 26.21-41.74 8.82-49.92-6.906 0.2512-6.906 0.2512-13.85 1.969-13.72 1.764-2.317-9.451 8.312-9.492z" fill="#090909"/>
<path transform="translate(443.9 691.7)" d="m0 0c0.2934 21.08 12.91 37.21 29.07 49.33-7.119 21.36-25.98-6.908-31.06-17.31-6.665-9.627-7.155-1.651-10.94 6.312-3.985 4.794-37.07 32.14-26 10l6.188-6.062c15.25-15.53 19.34-31.07 19.48-52.47 4.88-16.32 13.28 1.268 13.26 10.2z" fill="#060606"/>
<path transform="translate(341.9 683)" d="m0 0c-0.8513 7.074-0.8513 7.074 6.07 5.52 9.631 0.7643 7.403 5.48 7.055 14.17-0.09281 3.811-0.09281 3.811-0.1875 7.699-0.7857 7.362-2.472 13.62-4.812 20.61-0.4714 4.943-0.4714 4.943 6 10 0 3 0 3-3 6l-1 2c-9-4.5-9-4.5-9-8-2.596-0.2981-2.596-0.2981-4 4-14.12 12.1-11.32-2.242-4-10 1.576-3.338 1.576-3.338-1.938-6.75-4.997-8.566-3.44-17.04-2.312-26.62 1.036-5.124 1.036-5.124-3.75-5.625 0-8 0-8 5-8l-0.3125-5.5c0.5409-9.52 10.4-9.505 10.19 0.5z" fill="#090909"/>
<path transform="translate(664,745)" d="m0 0c-5.202 8.67-17 10.31-17-2h7c0-10.82-11.93-9.865-12.12 1l0.125 7c-45.31 0 15.01-91.56 22-6z" fill="#080808"/>
<path transform="translate(647.4 686.7)" d="m0 0c-3.837 5.388-3.837 5.388 5.625 5.312l-2-3c3.634-14.53 12.92 3.805 15 9 0.02262-3.396-0.01234-6.792-0.0625-10.19 0.418-13.78 12.06-18.76 12.06-0.8125 7.021-2.198 7.021-2.198 14-6 12.18-4.059 1.22 9.89-3 12-1.98 0.4125-3.96 0.825-6 1.25-13.47 4.715-2.301 11.2 7 9.75v-7c13.41-6.703 10.74 9.255 5 15-3.956 0.1798-7.916 0.2682-11.88 0.3125-3.276 0.05607-3.276 0.05607-6.617 0.1133-8.454-0.6535-8.346-3.293-9.508-11.43l-4 2c-5 0-5 0-6-2-6.694 0.1013-13.37 0.3981-20.05 0.7109-6.708-0.8021-13.62-6.373-4.945-10.71 1.506-2.372 3.011-4.744 4.562-7.188 7.443-9.326 21.27-10.65 10.81 2.875z" fill="#0C0C0C"/>
<path transform="translate(796.8 821.9)" d="m0 0c7.503 9.719 3.446-12.44 3.309-17.39 2.905-22.21 11.12 6.894 10.98 15.99 0.05221 3.219 0.05221 3.219 0.1055 6.504-0.1533 26.82-14.34 14.17-22.83-1.934-9.427-17.48-7.402 1.168-7.402 11.43 0 17.91-11.19 2.872-11.28-8.855 0.03029-2.194 0.06059-4.388 0.0918-6.648-0.04318-2.194-0.08637-4.388-0.1309-6.648 0.008379-2.075 0.01676-4.151 0.02539-6.289 0.007372-2.891 0.007372-2.891 0.01489-5.84 5.86-19.36 23.71 13.55 27.12 19.68z" fill="#0A0A0A"/>
<path transform="translate(456,810)" d="m0 0c4.219 6.328 4.743 1.885 9-4.5 15.97-19.96 17.47 0.7255 17.19 15 0.03029 2.146 0.06059 4.293 0.0918 6.504-0.08113 10.22-8.736 27.97-11.17 9.117 0.06574-2.866 0.1315-5.731 0.1992-8.684 0.7202-15.21 0.7202-15.21-6.312-5.438-7.838 7.838-13.43-1.868-17-9-0.1229 7.768-0.05432 15.53 0.02734 23.3-3.47 22.64-11.34-6.671-11.21-15.8-0.04318-2.146-0.08637-4.293-0.1309-6.504 0.08477-20.54 10.04-20.41 19.32-3.996z" fill="#040404"/>
<path transform="translate(355.3 807.5)" d="m0 0c1.206 16.67 21.13 16.59 22.44 0-0.3712-4.702-0.3712-4.702-0.75-9.5 14.83 0 10.36 10.5 10.19 23 0.04318 2.194 0.08637 4.388 0.1309 6.648-0.01257 3.113-0.01257 3.113-0.02539 6.289-0.007372 2.891-0.007372 2.891-0.01489 5.84-3.407 11.25-11.35 5.278-10.65-5.277-1.489-22.63-21.99-11.26-20.62 9.5-11.27 0-11.27 0-11.33-10.06-0.01289-2.075-0.02578-4.151-0.03906-6.289 0.03867-2.194 0.07734-4.388 0.1172-6.648-0.03867-2.194-0.07734-4.388-0.1172-6.648 0.01289-2.075 0.02578-4.151 0.03906-6.289 0.01128-1.927 0.02256-3.854 0.03418-5.84 3.434-11.21 11.38-5.358 10.61 5.277z" fill="#0D0D0D"/>
<path transform="translate(570.1 797.4)" d="m0 0c2.766-0.08379 5.533-0.1676 8.383-0.2539 20.61 2.592-4.622 9.358-12.94 9.098-19.43 2.509 3.585 9.563 11.43 9.719 22.79 11.4 4.344 28.29-13.25 28.69-2.563 0.08637-5.125 0.1727-7.766 0.2617-15.49-2.457-3.216-11.04 6.453-10.95h6.996 5.566c8.855-8.855-6.798-8.276-9.25-8.375-27.07-1.735-19.71-27.66 4.375-28.19z" fill="#0A0A0A"/>
<path transform="translate(613.2 797.4)" d="m0 0c2.563-0.07477 5.125-0.1495 7.766-0.2266 20.13 2.865-5.748 9.317-13.55 9.035-13.06 1.949-4.834 10.87 4.719 10.63 22.38-0.4119 22.73 25.81 1.199 27.8-2.541 0.04641-5.081 0.09281-7.699 0.1406-3.83 0.116-3.83 0.116-7.738 0.2344-15.85-2.622-2.674-10.91 7.051-10.61 12.82 0.9125 12.82 0.9125 12-8.375-3.032-0.0825-6.064-0.165-9.188-0.25-28.23-2.158-18.14-27.92 5.438-28.38z" fill="#080809"/>
<path transform="translate(535.9 811.9)" d="m0 0c1.313 3.863 1.313 3.863 2.652 7.805 0.7954 2.416 1.591 4.831 2.41 7.32 1.116 2.726 1.116 2.726 2.254 5.508 4.361 11.22-1.822 18.46-9.316 6.68-1.938-5.188-1.938-5.188-1.938-8.188-12.02-2.323-12.02-2.323-17 6-7.305 17.05-13.47 4.509-8.312-8.438 2.643-6.668 5.22-13.28 7.457-20.1 6.217-18.31 16.85-11.6 21.79 3.41z" fill="#080909"/>
<path transform="translate(253,810)" d="m0 0c0.8598 2.255 1.72 4.509 2.605 6.832 0.8521 2.304 1.704 4.607 2.582 6.98 0.8598 2.316 1.72 4.633 2.605 7.02 4.493 12.56-2.202 22.35-9.48 7.793-1.312-5.625-1.312-5.625-1.312-7.625-13.49-2.388-13.49-2.388-18 9-3.156 9.468-11.42 4.89-9-6 1.403-3.958 2.866-7.894 4.375-11.81 2.408-6.269 4.686-12.4 6.543-18.86 6.077-15.56 15.8-2.419 19.08 6.668z" fill="#080808"/>
<path transform="translate(186.9 807)" d="m0 0c0.07884 11.35 0.797 10.8 11.06 9 2.97 0.33 5.94 0.66 9 1v-9.438c0-21.12 10.16-6.22 10.23 6.434-0.0348 2.146-0.06961 4.293-0.1055 6.504 0.05221 3.219 0.05221 3.219 0.1055 6.504-0.09141 16-0.09141 16-10.23 16l0.6875-9c-1.632-21.37-22.09-11.16-20.69 9-15.77 0-11.48-9.682-11.25-22.5-0.05801-3.219-0.05801-3.219-0.1172-6.504 0.08205-12.92 11.45-27.48 11.3-6.996z" fill="#0B0B0B"/>
<path transform="translate(671.9 797.1)" d="m0 0c3.956-0.04447 3.956-0.04447 7.992-0.08984 20.16 3.377-5.077 9.007-13.4 8.332-13.59 1.728-4.854 11.87 5.281 11.57 22.61-0.4966 22.17 25.77 0.5391 27.73-3.794 0.06961-3.794 0.06961-7.664 0.1406-2.545 0.07734-5.089 0.1547-7.711 0.2344-15.91-2.648-2.473-11.07 7.023-10.98h7.277 5.785c10.28-10.28-13.04-8.287-16.05-8.328-21.9-2.973-7.715-28.67 10.93-28.61z" fill="#080808"/>
<path transform="translate(422.8 809.4)" d="m0 0c1.06 3.401 1.06 3.401 2.141 6.871 0.6755 2.229 1.351 4.458 2.047 6.754 1.316 3.494 2.665 6.975 4.062 10.44 5.186 13.35-5.219 14.14-9.25 4.125-3.744-7.405-16.68-12.22-18.81-1.562-2.388 8.359-14 12.97-12 1 2.106-5.449 4.397-10.81 6.68-16.18 2.074-5.198 3.624-10.31 5.133-15.69 6.525-14.59 16.43-7.913 20 4.25z" fill="#070707"/>
<path transform="translate(757,812)" d="m0 0 3.125 9.188 2.875 8.812 2.375 6.5c3.931 10.89-6.966 9.117-11 1.625-1.375-5.125-1.375-5.125-1.375-7.125-12.84-2.094-12.84-2.094-18 9-3.156 9.468-11.42 4.89-9-6 19.36-57.19 19.36-57.19 31-22z" fill="#060606"/>
<path transform="translate(623,711)" d="m0 0c-5.995 3.597-9.204 3.341-16.12 3.25-1.962-0.01547-3.924-0.03094-5.945-0.04688-40.14-1.654 39.59-78.54 22.07-3.203z" fill="#0D0D0D"/>
<path transform="translate(678,724)" d="m0 0c5.338-1.966 9.46-4.595 14-8 18.24 0-8.47 15.89-14 17 0 14.51 11.48 12.12 13 0 20.1 2.233 5.429 17.29-7.375 17.44-1.864 0.03996-3.728 0.07992-5.648 0.1211-12.19-1.368-10.8-10.89-10.91-20.87-0.1063-4.109-0.1063-4.109-0.2148-8.301 2.143-11.88 11.15-9.526 11.15 2.613z" fill="#070707"/>
<path transform="translate(279,807)" d="m0 0c6.432 9.647 6.826 3.377 10.62-4.312 6.725-9.34 16.51-7.297 8.59 4.438-6.345 9.438-9.918 16.09-9.902 27.62-0.6649 19.68-9.74 7.244-9.758-5.195-0.9214-9.227-5.413-14.94-10.55-22.55-9.329-16.33 6.211-8.686 11 0z" fill="#090809"/>
<path transform="translate(833,797)" d="m0 0c1.717-0.03094 3.434-0.06188 5.203-0.09375 12.8 0.08125 12.8 0.08125 12.8 9.094-3.455-0.3248-3.455-0.3248-6.98-0.6562-11.65 1.089-8.179 9.696-7.332 19.16 1.453 18.5 1.453 18.5-8.688 18.5-0.4229-8.113 0.01877-15.77 0.7031-23.85 0.6486-13.12-0.8198-14.46-13.7-13.15 0-12.62 7.746-9.185 18-9z" fill="#010101"/>
<path transform="translate(710,797)" d="m0 0c1.717-0.03094 3.434-0.06188 5.203-0.09375 12.8 0.08125 12.8 0.08125 12.8 9.094-3.455-0.3248-3.455-0.3248-6.98-0.6562-11.65 1.089-8.179 9.696-7.332 19.16 1.453 18.5 1.453 18.5-8.688 18.5-0.4229-8.113 0.01877-15.77 0.7031-23.85 0.6486-13.12-0.8198-14.46-13.7-13.15 0-12.62 7.746-9.185 18-9z" fill="#040303"/>
<path transform="translate(324,797)" d="m0 0c1.717-0.03094 3.434-0.06188 5.203-0.09375 12.8 0.08125 12.8 0.08125 12.8 9.094-3.455-0.3248-3.455-0.3248-6.98-0.6562-11.65 1.089-8.179 9.696-7.332 19.16 1.453 18.5 1.453 18.5-8.688 18.5-0.4229-8.113 0.01877-15.77 0.7031-23.85 0.6486-13.12-0.8198-14.46-13.7-13.15 0-12.62 7.746-9.185 18-9z" fill="#030303"/>
<path transform="translate(645.1 820.5)" d="m0 0c0.0348 2.146 0.06961 4.293 0.1055 6.504-0.12 21-11.34 21-11.46 0 0.05221-3.219 0.05221-3.219 0.1055-6.504-0.0348-2.146-0.06961-4.293-0.1055-6.504 0.1614-28.24 11.67-12.82 11.36 6.504z" fill="#010101"/>
<path transform="translate(385,706)" d="m0 0c-17.05 5.015-22.88-4.564-17-20 17.05-5.015 22.88 4.564 17 20z" fill="#D2D2D3"/>
<path transform="translate(386.7 728.5)" d="m0 0c-5.344 14.38-18.53 4.545-19.78-6.105 2.505-21.01 21.05-11.27 19.78 6.105z" fill="#DDDDDC"/>
<path transform="translate(232,734)" d="m0 0c-11.77 3.118-29.1 3.789-22-13 11.77-3.118 29.1-3.789 22 13z" fill="#E0E0E0"/>
<path transform="translate(232,714)" d="m0 0c-12.38 3.195-25.84 4.179-22-12 8.918-8.918 27.8-2.025 22 12z" fill="#DDDDDE"/>
<path transform="translate(195,713)" d="m0 0c-11.94 2.038-14.46-3.391-18-14 11.49-5.746 18 3.544 18 14z" fill="#0C0C0C"/>
<path transform="translate(589.5 736.4)" d="m0 0c3.063-0.01289 6.126-0.02578 9.281-0.03906 19.57 1.8-2.468 6.318-9.281 6.289-3.063 0.01289-6.126 0.02578-9.281 0.03906-19.57-1.8 2.468-6.318 9.281-6.289z" fill="#DCDBDA"/>
<path transform="translate(589.5 723.4)" d="m0 0c3.063-0.01289 6.126-0.02578 9.281-0.03906 19.57 1.8-2.468 6.318-9.281 6.289-3.063 0.01289-6.126 0.02578-9.281 0.03906-19.57-1.8 2.468-6.318 9.281-6.289z" fill="#E9E7E7"/>
<path transform="translate(192,694)" d="m0 0c-11.05 0-21-12.25-6-16 5.145 0 11.77 13.12 6 16z" fill="#0E0D0D"/>
<path transform="translate(612,706)" d="m0 0c-13.63 0-10.55-5.294-9-17 13.63 0 10.55 5.294 9 17z" fill="#E8E8E9"/>
<path transform="translate(274.3 688.3)" d="m0 0c2.121-0.006445 4.241-0.01289 6.426-0.01953 3.363 0.029 3.363 0.029 6.793 0.05859 2.242-0.01934 4.483-0.03867 6.793-0.05859 3.181 0.009668 3.181 0.009668 6.426 0.01953 1.969 0.00564 3.938 0.01128 5.967 0.01709 8.533 1.28 5.006 5.647-2.686 5.647v-4c-8.859-1.891-8.859-1.891-12 4-11 1-11 1-11-4-10.67-1.667-10.67-1.667-10 4-14.51 0-4.824-5.641 3.281-5.664z" fill="#EDEDED"/>
<path transform="translate(299,724)" d="m0 0 3 3c0 5.595-9 2.119-9-4-8.874-1.92-8.874-1.92-11 5-19.11 0 6.017-17.73 17-4z" fill="#ddd"/>
<path transform="translate(384,730)" d="m0 0c-10.09 1.407-12.39 0.273-13-10 0-13.59 13 1.741 13 10z" fill="#121211"/>
<path transform="translate(382,703)" d="m0 0c-12.2 0-11-2.835-11-14 12.2 0 11 2.835 11 14z" fill="#0E0E0E"/>
<path transform="translate(345,707)" d="m0 0-0.3125 7c-1.884 16.44-4.822 4.379-4.812-4.5-0.002578-2.3-0.005156-4.599-0.007812-6.969 0.3125-13.02 5.553-4.011 5.133 4.469z" fill="#DFDFDF"/>
<path transform="translate(227,713)" d="m0 0c-22 0-22 0-12-10 9.547 0 12 0.1455 12 10z" fill="#0E0E0D"/>
<path transform="translate(727,699)" d="m0 0c-11.14 0-11.07-0.8886-9-11 11.14 0 11.07 0.8886 9 11z" fill="#DDDDDB"/>
<path transform="translate(227,729)" d="m0 0c0 8.73-7.596 4.538-11 0-4.222-12.67 7.554-6.892 11 0z" fill="#131314"/>
<path transform="translate(585,717)" d="m0 0c-3.873 0.1275-7.75 0.1759-11.62 0.1875-2.158 0.01418-4.316 0.02836-6.539 0.04297-9.716-0.463-1.011-3.143 3.164-5.23 3.678-3.678 15-3.646 15 5z" fill="#DEDEDE"/>
<path transform="translate(727,717)" d="m0 0c-9 0-9 0-9-10 9 0 9 0 9 10z" fill="#E2E2E1"/>
<path transform="translate(727,734)" d="m0 0c-1 1-1 1-9 1 0-14.06 9-15.16 9-1z" fill="#DDDCDB"/>
<path transform="translate(247,823)" d="m0 0c-13.02 0-9.801-4.397-5-14 4.254 2.127 5 9.549 5 14z" fill="#D9D9D7"/>
<path transform="translate(529,823)" d="m0 0c-13.18 0-11.06-0.7267-7-11 4.436-6.654 6.352 6.897 7 11z" fill="#DADDDB"/>
<path transform="translate(750,823)" d="m0 0c-11.74 0-9.943-0.491-7-10 2.928-11.71 7 6.311 7 10z" fill="#DEE0DE"/>
<path transform="translate(416,823)" d="m0 0c-13.42 0-8.742-2.773-5-14 3.452 4.603 5 8.2 5 14z" fill="#DADDDA"/>
<path transform="translate(582,445)" d="m0 0c-5.189 0-7.038-5.1-10-9-6.433-6.849-6.433-6.849-12.5-10.81-11-7.79 16.96 10.49 22.5 19.81z" fill="#B03B3E"/>
<path transform="translate(654,729)" d="m0 0c-12 1.25-12 1.25-12-5 12-1.25 12-1.25 12 5z" fill="#E2E0E1"/>
<path transform="translate(654,717)" d="m0 0c-12 1.25-12 1.25-12-5 12-1.25 12-1.25 12 5z" fill="#CACBCD"/>
<path transform="translate(374,703)" d="m0 0 1 2c-10.35 0-6.89-29.15-1-2z" fill="#F7F7F5"/>
<path transform="translate(570,695)" d="m0 0c-13.68 1.338-13.68 1.338-7-2 4.447-7.411 7-7.455 7 2z" fill="#D7D5D5"/>
<path transform="translate(293,712)" d="m0 0c-12 0.75-12 0.75-12-3 12-0.75 12-0.75 12 3z" fill="#D0D1D0"/>
<path transform="translate(293,703)" d="m0 0c-12 0.75-12 0.75-12-3 12-0.75 12-0.75 12 3z" fill="#D8D9D9"/>
<path transform="translate(314,703)" d="m0 0c-10 0-10 0-10-3 10 0 10 0 10 3z" fill="#D0D2D2"/>
</svg>
