<?xml version="1.0" encoding="UTF-8"?>
<!-- Generator: visioncortex VTracer -->
<svg id="svg" version="1.1" xmlns="http://www.w3.org/2000/svg" style="display: block;" viewBox="0 0 474 474"><path d="M0 0 C2.74927197 -0.00477356 5.49854393 -0.00954712 8.33112717 -0.01446533 C228.36397213 0.3678265 296.62629268 79.52893249 296.25 296.25 C296.25477356 298.99927197 296.25954712 301.74854393 296.26446533 304.58112717 C295.8821735 524.61397213 216.72106751 592.87629268 0 592.5 C-4.12390795 592.50716034 -4.12390795 592.50716034 -8.33112717 592.51446533 C-228.36397213 592.1321735 -296.62629268 512.97106751 -296.25 296.25 C-296.25477356 293.50072803 -296.25954712 290.75145607 -296.26446533 287.91887283 C-295.8821735 67.88602787 -216.72106751 -0.37629268 0 0 Z " transform="translate(237,-59.25)" style="fill: #FDFDFD;"/><path d="M0 0 C2.62324219 -0.00257812 5.24648437 -0.00515625 7.94921875 -0.0078125 C10.69878906 -0.00007813 13.44835937 0.00765625 16.28125 0.015625 C19.03082031 0.00789063 21.78039062 0.00015625 24.61328125 -0.0078125 C28.54814453 -0.00394531 28.54814453 -0.00394531 32.5625 0 C36.1831543 0.00338379 36.1831543 0.00338379 39.87695312 0.00683594 C55.83047394 0.70608883 54.17101534 10.69117615 54.23291016 24.26147461 C54.24459229 26.00820969 54.25627441 27.75494476 54.26831055 29.55461121 C54.30197148 35.34245245 54.31264074 41.13003818 54.3203125 46.91796875 C54.33248599 50.93209425 54.34497175 54.94621881 54.35775757 58.96034241 C54.38025413 67.37942547 54.38979007 75.79841786 54.39208984 84.2175293 C54.39737855 95.02021757 54.4487411 105.8221547 54.51160622 116.62464046 C54.55240615 124.91588838 54.56173155 133.2069536 54.56220627 141.49829292 C54.56760422 145.4818293 54.58452783 149.46536697 54.61305618 153.44880486 C54.64958819 159.01322289 54.64212404 164.575912 54.62353516 170.14038086 C54.63003082 173.30965683 54.63652649 176.4789328 54.64321899 179.74424744 C53.03918971 193.74070203 44.88405567 194.02540474 32.7109375 194.02734375 C28.58271484 194.03217773 28.58271484 194.03217773 24.37109375 194.03710938 C20.05724609 193.99553711 20.05724609 193.99553711 15.65625 193.953125 C11.33080078 193.97536133 11.33080078 193.97536133 6.91796875 193.99804688 C-15.54761295 193.90852158 -21.3305274 193.73954985 -21.37988281 170.6003418 C-21.38484772 168.84122467 -21.38981262 167.08210754 -21.39492798 165.26968384 C-21.40959971 159.41806658 -21.41635983 153.56647642 -21.421875 147.71484375 C-21.42762218 143.66779072 -21.43337996 139.6207377 -21.43914795 135.57368469 C-21.44967212 127.07524488 -21.45550556 118.57681456 -21.45898438 110.07836914 C-21.46447299 99.16577384 -21.48850333 88.25330308 -21.51695633 77.34074688 C-21.5355401 68.97754037 -21.54078603 60.61436411 -21.54232025 52.25113869 C-21.54535678 48.22689953 -21.55341864 44.20266103 -21.56650543 40.178442 C-21.58347694 34.55856104 -21.58170706 28.93898767 -21.57519531 23.3190918 C-21.57884094 20.11554489 -21.58248657 16.91199799 -21.58624268 13.6113739 C-20.85902083 -0.92494054 -12.50946537 0.01169109 0 0 Z " transform="translate(103.21875,70.734375)" style="fill: #262022;"/><path d="M0 0 C3.99287109 0.02030273 3.99287109 0.02030273 8.06640625 0.04101562 C12.23716797 0.11545898 12.23716797 0.11545898 16.4921875 0.19140625 C19.28042969 0.20623047 22.06867188 0.22105469 24.94140625 0.23632812 C54.71364793 0.51774292 54.71364793 0.51774292 54.81884766 23.72802734 C54.83052979 25.48436996 54.84221191 27.24071259 54.85424805 29.05027771 C54.88793709 34.87602133 54.89858146 40.7015112 54.90625 46.52734375 C54.91842213 50.56531873 54.93090784 54.60329279 54.94369507 58.64126587 C54.96619962 67.11340362 54.97572834 75.58545122 54.97802734 84.05761719 C54.9833144 94.92871361 55.0346633 105.79906303 55.09754372 116.66995811 C55.13834517 125.0118202 55.14766907 133.3535007 55.14814377 141.69545364 C55.15354217 145.7041096 55.17046774 149.71276682 55.19899368 153.72132492 C55.23552598 159.32177108 55.22806112 164.92049942 55.20947266 170.52099609 C55.21596832 173.71105316 55.22246399 176.90111023 55.22915649 180.18783569 C53.70146713 193.59737319 46.37262041 194.50894001 34.53125 194.4453125 C32.02273438 194.43951172 29.51421875 194.43371094 26.9296875 194.42773438 C23.000625 194.37262695 23.000625 194.37262695 18.9921875 194.31640625 C16.38054687 194.31447266 13.76890625 194.31253906 11.078125 194.31054688 C-20.84951364 194.08928244 -20.84951364 194.08928244 -20.97094727 171.00097656 C-20.98248337 169.25613983 -20.99401947 167.5113031 -21.00590515 165.71359253 C-21.04032187 159.91972989 -21.05873567 154.12597387 -21.07421875 148.33203125 C-21.08112165 146.35765831 -21.08802456 144.38328537 -21.09513664 142.34908295 C-21.13101551 131.90199192 -21.15453329 121.45495526 -21.16821289 111.0078125 C-21.18477512 100.19846644 -21.24321321 89.38977289 -21.31135654 78.58064651 C-21.35606027 70.28507943 -21.36970149 61.98966985 -21.37483025 53.69399261 C-21.3827444 49.70848303 -21.40245128 45.72297912 -21.43405342 41.73758698 C-21.47532066 36.16600811 -21.47269704 30.596092 -21.45922852 25.02441406 C-21.46874039 21.85132629 -21.47825226 18.67823853 -21.48805237 15.40899658 C-19.90427502 1.23290506 -12.58287627 -0.12313391 0 0 Z " transform="translate(336.6328125,70.24609375)" style="fill: #272123;"/><path d="M0 0 C2.578125 -0.00257812 5.15625 -0.00515625 7.8125 -0.0078125 C10.514375 -0.00007813 13.21625 0.00765625 16 0.015625 C20.0528125 0.00402344 20.0528125 0.00402344 24.1875 -0.0078125 C26.765625 -0.00523438 29.34375 -0.00265625 32 0 C34.371875 0.00225586 36.74375 0.00451172 39.1875 0.00683594 C55.51086894 0.73359884 54.58466341 10.52263532 54.49609375 24.15625 C54.49754898 25.9262738 54.49900421 27.69629761 54.50050354 29.5199585 C54.49884243 33.26234584 54.48725786 37.00473987 54.46655273 40.74707031 C54.43754772 46.50615096 54.44595135 52.26431499 54.45898438 58.0234375 C54.4527492 61.65104618 54.44436001 65.27865194 54.43359375 68.90625 C54.43652939 70.64360413 54.43946503 72.38095825 54.44248962 74.17095947 C54.41563292 77.53488205 51 92.29069542 51 84.265625 C49.02 83.605625 47.04 82.945625 45 82.265625 C40 80.265625 40 80.265625 40 78.265625 C21.90495 75.24978333 -2.43666163 73.59312122 -18 85.265625 C-24.26397085 85.265625 -21.3938621 72.75440401 -21.3984375 68.37890625 C-21.40130768 66.65947311 -21.40417786 64.94003998 -21.40713501 63.16850281 C-21.40918336 59.51736117 -21.40360012 55.86620875 -21.39111328 52.21508789 C-21.37512071 46.6203551 -21.39091264 41.02635022 -21.41015625 35.43164062 C-21.408173 31.89322757 -21.40432763 28.35481496 -21.3984375 24.81640625 C-21.39505371 21.57481689 -21.39166992 18.33322754 -21.38818359 14.9934082 C-20.61893414 -0.32046154 -13.43574071 0.01277856 0 0 Z " transform="translate(221,70.734375)" style="fill: #272224;"/><path d="M0 0 C-0.33 0.99 -0.66 1.98 -1 3 C-1.66 3 -2.32 3 -3 3 C-3.66 4.65 -4.32 6.3 -5 8 C-12 14 -12 14 -14 14 C-14 14.66 -14 15.32 -14 16 C-18.29537703 18.14768851 -45 24.90482594 -45 17 C-46.65 16.67 -48.3 16.34 -50 16 C-60.41493582 9.18528891 -64.18158508 4.83708624 -68 -7 C-68.66 -7.33 -69.32 -7.66 -70 -8 C-70.91503268 -36 -70.91503268 -36 -65 -36 C-64.67 -37.65 -64.34 -39.3 -64 -41 C-59 -46 -59 -46 -55 -48 C-54.01 -48.99 -53.02 -49.98 -52 -51 C-18.30275546 -63.6364667 17.94460138 -35.88920275 0 0 Z " transform="translate(270,244)" style="fill: #A9242A;"/><path d="M0 0 C4.01536697 0.28122065 8.03882934 0.45145331 12.0625 0.5625 C25.2357318 0.94108555 35.07785279 14 17 14 C16.66666667 17.16666667 16.66666667 17.16666667 24 16 C25 20 25 20 16 20 C16 26.94740535 21.31714255 24.12915585 27 24 C27 26 27 26 19 26 C23.1024979 31.99325186 23.1024979 31.99325186 27 33 C27 36 27 36 22 36 C22 37.32 22 38.64 22 40 C16.23973207 40.2992347 10.57416109 39.98279439 4.8125 39.75 C-8.80239636 40.45726734 7.27530883 44.31028092 12.375 44.1875 C18.21067323 44.06633282 36.67714677 47.27960056 20.01147461 48.40405273 C11.31982821 48.43571581 2.62920691 48.45774323 -6.0625 48.4375 C-9.11048828 48.45748047 -12.15847656 48.47746094 -15.29882812 48.49804688 C-19.62331055 48.49708008 -19.62331055 48.49708008 -24.03515625 48.49609375 C-26.7100415 48.49794678 -29.38492676 48.4997998 -32.14086914 48.50170898 C-50.2968718 46.94703648 -22.9620092 44.14197293 -17.6875 44.34765625 C-4.05684014 43.51446344 -15.83136446 38.57630685 -23 38.875 C-34 39.30555556 -34 39.30555556 -34 36 C-35.65 36 -37.3 36 -39 36 C-38 32 -38 32 -33 29 C-31.03103721 25.80743041 -31.03103721 25.80743041 -40 27 C-40 20.05259465 -34.68285745 22.87084415 -29 23 C-28.66666667 19.83333333 -28.66666667 19.83333333 -36 21 C-37 16 -37 16 -29 16 C-28.66666667 12.5 -28.66666667 12.5 -38 14 C-38.35486849 -2.85625321 -31.94820404 0.96715015 -17.3125 1.2578125 C-11.24638818 0.96342766 -6.49505938 -6.49505938 0 0 Z " transform="translate(244,306)" style="fill: #303030;"/><path d="M0 0 C3.2484375 -0.061875 3.2484375 -0.061875 6.5625 -0.125 C16.77015222 1.65886155 13.84328572 6.95384407 13 16 C17.46652829 13.76673586 15.78284501 1.46718841 16 -3 C18.49280662 -5.49280662 31.17877955 -4.12732008 34 -4.125 C38.7025 -4.12886719 38.7025 -4.12886719 43.5 -4.1328125 C51.95220857 -3.98313797 51.95220857 -3.98313797 52.4375 6 C51.67898839 14.69982292 51.67898839 14.69982292 55 16 C55 19 55 19 53 20 C53 22.990625 53 25.98125 53 29.0625 C53 38 53 38 51 38 C50.34 39.32 49.68 40.64 49 42 C37.375 45.875 37.375 45.875 40 38 C34.33491368 37.86617906 28.66545421 37.88278371 23 38 C12.71307172 33.59131645 15.66927769 29.33507229 16 19 C11.83333333 18.5 11.83333333 18.5 13 26 C12.34 26 11.68 26 11 26 C8.38293159 34.07556758 8.38293159 34.07556758 11 39 C11 46.95290826 6.94923067 44.63742107 -0.0625 44.5625 C-3.14271484 44.56443359 -3.14271484 44.56443359 -6.28515625 44.56640625 C-14.91827936 43.52928707 -10.15211874 40.0608475 -5 38 C-4.36754447 33.68377223 -4.36754447 33.68377223 -8 33 C-11.8552577 26.57457051 -11.54100352 22.02608583 -11.75 14.5625 C-11.82734375 12.17128906 -11.9046875 9.78007812 -11.984375 7.31640625 C-12.00712866 -1.88176046 -3.01559614 -15.0779807 0 0 Z " transform="translate(337,310)" style="fill: #191919;"/><path d="M0 0 C4.66286219 0.18839847 9.33572083 0.14925693 14 0 C19.53704706 -0.17718551 39.71901781 3.20940349 22.16796875 4.50390625 C19.20441406 4.52324219 16.24085938 4.54257812 13.1875 4.5625 C2.87967199 3.50903241 2.87967199 3.50903241 -5 8 C0.12785871 7.79014101 5.25261429 7.50394961 10.375 7.1875 C25.32900204 6.9380419 29.51029078 7.95295645 26 24 C26.99 24 27.98 24 29 24 C29 26 29 26 26 26 C26.268125 28.371875 26.53625 30.74375 26.8125 33.1875 C27.0640853 43.67022084 23.34093638 46 13 46 C13 44.68 13 43.36 13 42 C7.50287839 41.58579307 7.50287839 41.58579307 1 41.875 C-11 42.19444444 -11 42.19444444 -11 40 C-11.99 39.67 -12.98 39.34 -14 39 C-13.979375 37.02 -13.95875 35.04 -13.9375 33 C-13.03696265 26.55540179 -13.03696265 26.55540179 -18 26 C-18 23 -18 23 -14 23 C-12.2117543 14.68140512 -12.2117543 14.68140512 -18 12 C-16 2 -16 2 -12 2 C-11.67 0.35 -11.34 -1.3 -11 -3 C-5.84220014 -8.15779986 -1.31831715 -5.27326861 0 0 Z " transform="translate(122,308)" style="fill: #111111;"/><path d="M0 0 C6.31002185 0.29597497 12.62026024 0.50615428 18.93359375 0.71875 C29.7415332 1.31872813 29.91107787 14 17 14 C16.66666667 17.16666667 16.66666667 17.16666667 24 16 C25 20 25 20 16 20 C16 26.94740535 21.31714255 24.12915585 27 24 C27 26 27 26 19 26 C23.1024979 31.99325186 23.1024979 31.99325186 27 33 C27 36 27 36 22 36 C22 37.32 22 38.64 22 40 C16.23861777 40.25720456 10.57190803 39.91777101 4.8125 39.65234375 C-10.54949063 40.76209794 9.81491902 45.82716397 15 46 C15 48.23101486 -8.02012299 47.1867256 -11 47.1875 C-14.72023437 47.20586914 -14.72023437 47.20586914 -18.515625 47.22460938 C-22.03476563 47.22750977 -22.03476563 47.22750977 -25.625 47.23046875 C-28.89277344 47.23663208 -28.89277344 47.23663208 -32.2265625 47.24291992 C-47.19630571 46.48111067 -20.01591657 45.47637523 -16.6875 45.61328125 C-3.07730215 44.1456981 -13.33245602 37.26616106 -22 37.6875 C-33 38.15277778 -33 38.15277778 -33 36 C-27.26131526 36.01863209 -21.54567408 36.26950389 -15.8125 36.515625 C-10.00569085 36.70014087 -10.00569085 36.70014087 -11 30 C-1 30 -1 30 0 35 C15.48269282 36.981073 15.48269282 36.981073 7 28 C7 27.34 7 26.68 7 26 C3.14700586 25.90493769 -0.70904667 25.92585057 -4.5625 26 C-16.11097635 26.2219527 -16.11097635 26.2219527 -15 24 C-11.64528307 23.98535058 -8.28995035 24.06333517 -4.9375 24.1875 C2.67761709 24.04381855 11.59898314 19.65092011 0.40625 18.546875 C-1.5428125 18.61390625 -3.491875 18.6809375 -5.5 18.75 C-7.70993221 18.8143102 -24.28169875 18.30030334 -11.15234375 17.82421875 C-7.006676 17.73301927 -2.86082757 17.64969491 1.28515625 17.57421875 C14.14306264 16.00825998 -1.33985403 12.39397487 -5.5625 12.3125 C-25.19659956 11.85589303 -9.13112243 10.67409365 0.30859375 10.37890625 C5.02065297 10.67162881 5.02065297 10.67162881 6 8 C8.97 8 11.94 8 15 8 C12.92197176 1.76591529 -0.92993854 4.61989499 -6.73828125 4.6015625 C-19.76870327 3.11181863 -4.54376633 -0.56797079 0 0 Z " transform="translate(244,306)" style="fill: #222222;"/><path d="M0 0 C2.97193359 0.03480469 2.97193359 0.03480469 6.00390625 0.0703125 C14.90806037 1.45089144 13.36163201 4.51911183 12.9375 12.875 C12.86402344 15.05867188 12.79054688 17.24234375 12.71484375 19.4921875 C12.04120176 25.62490638 10.76893843 31.10353857 9 37 C8.66666667 39.33333333 8.66666667 39.33333333 11 39 C11 46.95290826 6.94923067 44.63742107 -0.0625 44.5625 C-3.14271484 44.56443359 -3.14271484 44.56443359 -6.28515625 44.56640625 C-14.91827936 43.52928707 -10.15211874 40.0608475 -5 38 C-4.36754447 33.68377223 -4.36754447 33.68377223 -8 33 C-11.8552577 26.57457051 -11.54100352 22.02608583 -11.75 14.5625 C-11.82734375 12.17128906 -11.9046875 9.78007812 -11.984375 7.31640625 C-12.00712866 -1.88176046 -3.01559614 -15.0779807 0 0 Z " transform="translate(337,310)" style="fill: #0C0C0C;"/><path d="M0 0 C0.00386719 3.8671875 0.00386719 3.8671875 0.0078125 7.8125 C-0.40128553 26.87165537 -6.125 4.26508505 -6.125 -4 C-10.84204177 -1.44464865 -10.84204177 -1.44464865 -13.125 1 C-18.125 1 -18.125 1 -24.125 -3 C-24.54207185 5.24966123 -24.54207185 5.24966123 -24.125 14 C-30.70234841 27.15469682 -31.55204147 1.09638737 -31.5625 0.4375 C-31.62308594 -2.24503906 -31.68367188 -4.92757813 -31.74609375 -7.69140625 C-30.62977446 -19.03012106 -23.18163303 -14.05663303 -17.125 -8 C-11.752322 -7.25464401 -11.752322 -7.25464401 -10.125 -12 C1.27241488 -23.39741488 0.00710379 -7.10379241 0 0 Z " transform="translate(390.125,388)" style="fill: #302F30;"/><path d="M0 0 C1.18610101 14.23321209 16.6656859 7.98823074 15.5 -6 C26.25501048 -6 23.26643433 -1.62083149 23 7.9375 C22.9484375 10.52464844 22.896875 13.11179687 22.84375 15.77734375 C22.14294686 28.4634733 15.5 23.52385152 15.5 12 C1.30472019 8.99244852 1.30472019 8.99244852 -0.5 22 C-6.26842271 33.53684542 -7.24791092 9.5232976 -7.25 8.4375 C-7.28609375 5.75496094 -7.3221875 3.07242187 -7.359375 0.30859375 C-6.19497128 -8.23918812 0.85250491 -10.23005889 0 0 Z " transform="translate(90.5,380)" style="fill: #434343;"/><path d="M0 0 C-0.20625 1.815 -0.4125 3.63 -0.625 5.5 C0.83612704 18.35791799 17.42296098 13.91339624 16 0 C26.75501048 0 23.76643433 4.37916851 23.5 13.9375 C23.4484375 16.52464844 23.396875 19.11179687 23.34375 21.77734375 C22.90573222 29.70646099 16.85253972 33.66957544 17.1875 23.0625 C14.21059862 7.86463505 -1.58813034 13.84057398 0 29 C-9.56491754 29 -6.30053861 22.26724298 -6.4375 13.9375 C-6.49808594 11.34777344 -6.55867188 8.75804687 -6.62109375 6.08984375 C-6 0 -6 0 0 0 Z " transform="translate(268,374)" style="fill: #3C3C3C;"/><path d="M0 0 C5.11182531 0.53574517 5.11182531 0.53574517 11.0625 0.1875 C14.2322586 0.08097038 30.0693771 1.58143537 17.40625 2.23828125 C13.46884041 2.28775928 9.53132492 2.32942644 5.59375 2.36328125 C-5.85073076 3.94954857 3.76581428 9.0577973 9.625 9.5 C28.12509107 10.95098754 -6.40520305 11.1865658 -10 11.1875 C-13.72023437 11.20586914 -13.72023437 11.20586914 -17.515625 11.22460938 C-21.03476563 11.22750977 -21.03476563 11.22750977 -24.625 11.23046875 C-27.89277344 11.23663208 -27.89277344 11.23663208 -31.2265625 11.24291992 C-46.19630571 10.48111067 -19.01591657 9.47637523 -15.6875 9.61328125 C-2.07730215 8.1456981 -12.33245602 1.26616106 -21 1.6875 C-32 2.15277778 -32 2.15277778 -32 0 C-26.2616053 -0.02328894 -20.54666533 0.20438557 -14.8125 0.41796875 C-0.1707356 -0.853678 -0.1707356 -0.853678 0 0 Z " transform="translate(243,342)" style="fill: #0A0A0A;"/><path d="M0 0 C0 -0.99 0 -1.98 0 -3 C8.54118129 -11.54118129 16.07874619 -7.07874619 7 2 C5.35 2 3.7 2 2 2 C2.33 3.65 2.66 5.3 3 7 C2.91462363 16.9890351 -5 29.74250273 -5 13.5625 C-6.17123276 4.70505228 -8.78080787 2.13159788 -15 -4 C-15 -14.89910989 -3.46810224 -3.16388274 0 0 Z " transform="translate(192,382)" style="fill: #373737;"/><path d="M0 0 C2.28808594 -0.00257813 4.57617188 -0.00515625 6.93359375 -0.0078125 C18.69076285 0.26959468 19.333867 17.125 8.5625 17.125 C8.76875 15.31 8.975 13.495 9.1875 11.625 C7.73721495 -1.13750845 -9.03051898 3.10643293 -7.4375 17.125 C-21.08783955 17.125 -14.98510706 -0.01686562 0 0 Z " transform="translate(323.4375,385.875)" style="fill: #3A3A3A;"/><path d="M0 0 C2.0934375 -0.01675781 4.186875 -0.03351563 6.34375 -0.05078125 C16.62387472 0.67350026 18.49173801 17.3125 7.5 17.3125 C7.685625 15.4975 7.87125 13.6825 8.0625 11.8125 C6.78400005 -0.68838836 -7.5 3.38292868 -7.5 16.3125 C-21.62051186 16.3125 -13.60952575 0.02514075 0 0 Z " transform="translate(145.5,385.6875)" style="fill: #3A393A;"/><path d="M0 0 C-4.0787195 10.87658533 -21.06958274 11.81847497 -23.75 -0.5625 C-21.05691354 -12.74551019 -3.84964207 -10.26571219 0 0 Z " transform="translate(140.4375,340.5)" style="fill: #7E7D7E;"/><path d="M0 0 C-8.84555551 2.51094716 -19.04785757 4.30731098 -21.3125 -5.9375 C-18.25318043 -20.06864275 6.58230168 -17.55280447 0 0 Z " transform="translate(138,332)" style="fill: #828282;"/><path d="M0 0 C-14.82564452 3.9535052 -16.94204346 -1.06298225 -15 -15 C-2.02587061 -27.97412939 2.10755036 -10.23667318 0 0 Z " transform="translate(378,326)" style="fill: #CBCBCB;"/><path d="M0 0 C-2.58130508 6.02304518 -14 17.13795109 -14 3 C-13.34 3 -12.68 3 -12 3 C-11.29777394 -0.99391074 -10.63449183 -4.99477035 -10 -9 C-4.60743893 -22.48140267 4.92529896 -13.13413057 0 0 Z " transform="translate(99,346)" style="fill: #1A1A1A;"/><path d="M0 0 C2.2584375 -0.02578125 4.516875 -0.0515625 6.84375 -0.078125 C12.5 0.25 12.5 0.25 15.5 3.25 C17.975 4.735 17.975 4.735 20.5 6.25 C23.21267683 11.67535366 7.91956016 8.36167201 5.5 8.25 C5.17 6.93 4.84 5.61 4.5 4.25 C-4.20028049 1.50713742 -4.20028049 1.50713742 -5.5 9.25 C-29.38571429 10.50714286 -29.38571429 10.50714286 -21.5 5.25 C-20.18 5.25 -18.86 5.25 -17.5 5.25 C-16.84 3.93 -16.18 2.61 -15.5 1.25 C-10.45733118 -0.43088961 -5.28412512 0.03619264 0 0 Z " transform="translate(238.5,332.75)" style="fill: #E6E5E6;"/><path d="M0 0 C-14.64866848 4.05454217 -16.84677459 -2.50417974 -14 -16 C1.00400124 -18.47638855 1.7950392 -14.24064434 0 0 Z " transform="translate(378,345)" style="fill: #989898;"/><path d="M0 0 C2.93326172 -0.02416992 2.93326172 -0.02416992 5.92578125 -0.04882812 C20.5 -0.05390625 20.5 -0.05390625 20.5 3.3125 C17.53 3.3125 14.56 3.3125 11.5 3.3125 C11.5 3.9725 11.5 4.6325 11.5 5.3125 C7.50519467 5.54136906 3.50135008 5.61805321 -0.5 5.625 C-2.7275 5.64175781 -4.955 5.65851563 -7.25 5.67578125 C-12.5 5.3125 -12.5 5.3125 -12.5 2.3125 C-15.14 2.3125 -17.78 2.3125 -20.5 2.3125 C-20.5 -1.99763507 -4.31632918 -0.00711326 0 0 Z " transform="translate(238.5,310.6875)" style="fill: #DCDCDC;"/><path d="M0 0 C-0.59888669 7.79233244 -7.08861331 7.79233244 -7.6875 0 C-8.24812561 -20.0563811 0.56062561 -20.0563811 0 0 Z " transform="translate(237.34375,397.52734375)" style="fill: #494949;"/><path d="M0 0 C-0.66 0 -1.32 0 -2 0 C-2.33 1.32 -2.66 2.64 -3 4 C-3.99 4 -4.98 4 -6 4 C-6.18206666 9.22858112 -5.92173349 14.3983119 -5.71484375 19.625 C-6.63424769 33.73092345 -10.66191853 13.91837072 -10.6875 9.9375 C-10.73261719 7.32714844 -10.77773438 4.71679688 -10.82421875 2.02734375 C-9.61635025 -6.80555243 -5.5078809 -5.5078809 0 0 Z " transform="translate(370,378)" style="fill: #252424;"/><path d="M0 0 C2.10503906 -0.03738281 4.21007812 -0.07476562 6.37890625 -0.11328125 C20.96654202 1.11455836 6.14054499 5.44502057 0 5.4375 C-3.15369141 5.44136719 -3.15369141 5.44136719 -6.37109375 5.4453125 C-21.88102014 5.0485198 -7.7279692 0.09002539 0 0 Z " transform="translate(324.5625,373.6875)" style="fill: #313131;"/><path d="M0 0 C2.10503906 -0.03738281 4.21007812 -0.07476562 6.37890625 -0.11328125 C20.96654202 1.11455836 6.14054499 5.44502057 0 5.4375 C-3.15369141 5.44136719 -3.15369141 5.44136719 -6.37109375 5.4453125 C-21.88102014 5.0485198 -7.7279692 0.09002539 0 0 Z " transform="translate(233.5625,373.6875)" style="fill: #2B2B2B;"/><path d="M0 0 C2.10503906 -0.03738281 4.21007812 -0.07476562 6.37890625 -0.11328125 C20.96654202 1.11455836 6.14054499 5.44502057 0 5.4375 C-3.15369141 5.44136719 -3.15369141 5.44136719 -6.37109375 5.4453125 C-21.88102014 5.0485198 -7.7279692 0.09002539 0 0 Z " transform="translate(145.5625,373.6875)" style="fill: #313131;"/><path d="M0 0 C7.28594662 0.17938884 14.5279867 -0.07754762 21.8125 -0.28515625 C39.69342885 0.53890171 19.01704394 4.4333084 12.8125 4.375 C9.78707031 4.36210937 6.76164063 4.34921875 3.64453125 4.3359375 C-3 4 -3 4 1 2 C0.34 1.67 -0.32 1.34 -1 1 C-1 -3 -1 -3 0 0 Z " transform="translate(122,308)" style="fill: #4A4A4A;"/><path d="M0 0 C0.99 0.33 1.98 0.66 3 1 C3.33 1.66 3.66 2.32 4 3 C13.36707311 4.31993266 13.36707311 4.31993266 11 -4 C23.66012484 -4 16.04818705 6.99263809 7 8.375 C-9.32317926 5.88118095 0 -6.78321639 0 0 Z " transform="translate(121,340)" style="fill: #8C8C8C;"/><path d="M0 0 C-1.65 0 -3.3 0 -5 0 C-4.67 1.65 -4.34 3.3 -4 5 C-4.03440425 9.02529767 -11 25.88052932 -11 18 C-9.35 18 -7.7 18 -6 18 C-5.55815509 7.5272347 -5.55815509 7.5272347 -9 -2 C-8.34 -2 -7.68 -2 -7 -2 C-7 -2.99 -7 -3.98 -7 -5 C1.54118129 -13.54118129 9.07874619 -9.07874619 0 0 Z " transform="translate(199,384)" style="fill: #909090;"/><path d="M0 0 C-11.42857143 0 -11.42857143 0 -14 -9 C-7.15817917 -15.84182083 0 -6.37975857 0 0 Z " transform="translate(101,328)" style="fill: #111111;"/><path d="M0 0 C-8.61137411 0 -9.4817298 -0.2225947 -14 -7 C-14 -17.01273944 0 -7.68999906 0 0 Z " transform="translate(101,316)" style="fill: #0D0D0D;"/><path d="M0 0 C-0.33 0.99 -0.66 1.98 -1 3 C-0.34 3 0.32 3 1 3 C1.33 4.65 1.66 6.3 2 8 C13.6932834 9.65647289 13.6932834 9.65647289 11 -1 C22.86634817 -1 13.96461362 10.15818403 6 11.375 C-5.27438459 9.65252458 -6.24597596 -2.08199199 0 0 Z " transform="translate(122,321)" style="fill: #A5A5A5;"/><path d="M0 0 C3.34125 -0.01546875 3.34125 -0.01546875 6.75 -0.03125 C20.98891932 1.40959303 5.28427579 5.02446424 0 5 C-3.34125 5.01546875 -3.34125 5.01546875 -6.75 5.03125 C-20.98891932 3.59040697 -5.28427579 -0.02446424 0 0 Z " transform="translate(238,318.5)" style="fill: #C1C1C1;"/><path d="M0 0 C-2.31 0 -4.62 0 -7 0 C-13.42659856 6.42659856 -2.04838863 3.53429734 2.3125 3.625 C26.63834754 4.18605744 5.95503228 5.14720615 -5 5.125 C-7.86171875 5.13080078 -7.86171875 5.13080078 -10.78125 5.13671875 C-31.73052987 5.12175498 -31.73052987 5.12175498 -19 3 C-24.33228794 2.65034177 -29.66575803 2.31846221 -35 2 C-35 -0.10756596 -18.75619556 1.21017414 -16.34765625 1.2578125 C-11.68337163 1.0329456 -3.55603372 -7.11206743 0 0 Z " transform="translate(243,306)" style="fill: #656565;"/><path d="M0 0 C-10.50430333 0 -11.10600329 -0.16885968 -10 -10 C-0.41149049 -10 0 -9.16114094 0 0 Z " transform="translate(376,342)" style="fill: #121212;"/><path d="M0 0 C-6.76464284 0 -4.53056686 -4.75861689 -4.5 -10.5625 C-4.5103125 -12.52316406 -4.520625 -14.48382813 -4.53125 -16.50390625 C-2.69394035 -32.05349014 0.12865923 -2.55710228 0 0 Z " transform="translate(340,335)" style="fill: #949494;"/><path d="M0 0 C-0.05542969 2.59875 -0.11085938 5.1975 -0.16796875 7.875 C0.6182113 21.42148708 4.51810423 10.77315942 4.25 4 C4.14137481 1.15599512 4.80725173 -13.14074482 8.1875 -3 C7.5275 -3 6.8675 -3 6.1875 -3 C6.14521262 2.66650888 6.14643828 8.33348211 6.1875 14 C-0.4355625 27.246125 -0.93809035 1.05117387 -0.9375 0.4375 C-0.94007813 -2.24503906 -0.94265625 -4.92757813 -0.9453125 -7.69140625 C-0.57992305 -25.0474053 0.04342683 -2.36617525 0 0 Z " transform="translate(359.8125,388)" style="fill: #7A7879;"/><path d="M0 0 C0 8.46647765 -8.09029877 2.76697092 -9.9375 -2 C-10.08018112 -13.41448972 -2.54381976 -5.93557944 0 0 Z " transform="translate(376,320)" style="fill: #0D0D0D;"/><path d="M0 0 C0 3 0 3 -10 3 C-13.29554255 -8.53439891 -3.85048836 -7.70097672 0 0 Z " transform="translate(134,326)" style="fill: #0A0A0A;"/><path d="M0 0 C-9 0 -9 0 -12 -4 C-12 -14.70254201 -1.60601973 -5.62106906 0 0 Z " transform="translate(134,344)" style="fill: #0C0C0C;"/><path d="M0 0 C2.041875 -0.00773437 4.08375 -0.01546875 6.1875 -0.0234375 C19.23836135 1.05707212 4.22903162 3.76601906 0 3.75 C-2.041875 3.75773437 -4.08375 3.76546875 -6.1875 3.7734375 C-19.23836135 2.69292788 -4.22903162 -0.01601906 0 0 Z " transform="translate(238,325.625)" style="fill: #DFDFDF;"/><path d="M0 0 C-3.34995854 0 -1 -6.65004146 -1 -10 C-13.52167604 -12.67794685 -13.52167604 -12.67794685 -15 -1 C-20.80403258 1.90201629 0.70236618 -30.55292864 0 0 Z " transform="translate(285,402)" style="fill: #A2A2A2;"/><path d="M0 0 C0.00386719 3.88458984 0.00386719 3.88458984 0.0078125 7.84765625 C-0.37660868 25.47449788 -1.42091312 -3.35996788 -1.453125 -6.375 C-2.54124585 -15.58606956 -6.16852988 -12.82767609 -12.125 -8.0625 C-3.82444962 -24.66360076 0.01058114 -10.61817028 0 0 Z " transform="translate(390.125,388.0625)" style="fill: #858585;"/><path d="M0 0 C-2.97 0 -5.94 0 -9 0 C-9.33333333 3.5 -9.33333333 3.5 0 2 C0 7.7025641 -9 10.21025641 -9 5 C-6.36 5 -3.72 5 -1 5 C-0.66666667 1.5 -0.66666667 1.5 -10 3 C-8.92201696 -3.46789827 0 -8.7136794 0 0 Z " transform="translate(216,317)" style="fill: #818181;"/><path d="M0 0 C-2.97 0 -5.94 0 -9 0 C-9.33333333 3.16666667 -9.33333333 3.16666667 -2 2 C-2 6.89814815 -10 4.33333333 -10 -1 C-7.03 -1 -4.06 -1 -1 -1 C-0.66666667 -4.5 -0.66666667 -4.5 -10 -3 C-10 -11.38785925 0 -7.47249042 0 0 Z " transform="translate(270,320)" style="fill: #878687;"/><path d="M0 0 C2.97 0 5.94 0 9 0 C10 4 10 4 8 2 C-2.42527978 0.51067432 0.89930337 2.99734617 3 11 C1 10 1 10 1 5 C-2.5 4.66666667 -2.5 4.66666667 -1 14 C-2.79796152 14 -3.48124538 -6.96249077 0 0 Z " transform="translate(365,312)" style="fill: #6E6E6E;"/><path d="M0 0 C-0.33 0.33 -0.66 0.66 -1 1 C-0.34 1.33 0.32 1.66 1 2 C0 6 0 6 0 3 C-3.3 3 -6.6 3 -10 3 C-9.67 2.01 -9.34 1.02 -9 0 C-9.66 0 -10.32 0 -11 0 C-10 -2 -10 -2 -1 -1 C-1 -4 -1 -4 0 0 Z " transform="translate(102,329)" style="fill: #969696;"/><path d="M0 0 C-7.55647345 0 -3.38008151 -4.61991849 0 -8 C7.55647345 -8 3.38008151 -3.38008151 0 0 Z " transform="translate(198,383)" style="fill: #212121;"/><path d="M0 0 C3.3 0 6.6 0 10 0 C12.45201076 4.90402151 -0.52433089 2.47566911 -2 1 C-2 -0.65 -2 -2.3 -2 -4 C-4.97 -4 -7.94 -4 -11 -4 C-11 -13.20378947 -0.79057496 -3.95287481 0 0 Z " transform="translate(338,309)" style="fill: #929292;"/><path d="M0 0 C-2 0 -2 0 -3 -7 C-5.97 -7 -8.94 -7 -12 -7 C-6.78267159 -17.43465681 0 -6.12608095 0 0 Z " transform="translate(377,338)" style="fill: #CDCDCD;"/><path d="M0 0 C0.99 0.33 1.98 0.66 3 1 C2 4 2 4 2 2 C0.185 2.04125 -1.63 2.0825 -3.5 2.125 C-19.2247788 1.76761866 0 -7.3187022 0 0 Z " transform="translate(269,328)" style="fill: #BFBFBF;"/><path d="M0 0 C-2 -1 -2 -1 -3 -5 C-5.97 -5.33 -8.94 -5.66 -12 -6 C-12 -11.21026342 0 -10.48707489 0 0 Z " transform="translate(377,318)" style="fill: #E7E7E7;"/><path d="M0 0 C-0.72963803 9.06835835 -3.30700487 5.14217369 -4.375 -0.625 C-4.47580514 -8.58860587 -0.55749165 -7.08810816 0 0 Z " transform="translate(137.4375,325.5625)" style="fill: #F0F0F0;"/><path d="M0 0 C-1.12130908 8.3724411 -2.41586443 10.12981341 -3.9375 1 C-3.6075 1 -3.2775 1 -2.9375 1 C-1.42634 -9.57812 -5.06189786 -6.54900632 -13.9375 -6 C-13.9375 -11.38767391 -1.00504999 -7.50437329 0 0 Z " transform="translate(378.9375,316)" style="fill: #868586;"/><path d="M0 0 C0.33 0.66 0.66 1.32 1 2 C-8.61525479 2 -6.77490193 -18.06640516 0 0 Z " transform="translate(124,344)" style="fill: #F1F1F1;"/><path d="M0 0 C0 12.37551685 -2.35429437 12.87423375 -4 3 C-5 0 -5 0 0 0 Z " transform="translate(137,336)" style="fill: #F3F3F3;"/><path d="M0 0 C-4 1 -4 1 -4.4375 -4.5 C-3.40079892 -17.5328136 -0.47733476 -4.29601287 0 0 Z " transform="translate(123,330)" style="fill: #F0F0F0;"/><path d="M0 0 C3.3 0 6.6 0 10 0 C10 16.16975588 -7.17919372 -14.35838744 0 0 Z " transform="translate(367,342)" style="fill: #E5E5E5;"/></svg>