<?xml version="1.0" encoding="UTF-8"?>
<!-- Generator: visioncortex VTracer -->
<svg id="svg" display="block" version="1.1" viewBox="0 0 474 474" xmlns="http://www.w3.org/2000/svg">
 <path transform="translate(237,-59.25)" d="m0 0c2.7493-0.0047736 5.4985-0.0095471 8.3311-0.014465 220.03 0.38229 288.3 79.543 287.92 296.26 0.0047736 2.7493 0.0095471 5.4985 0.014465 8.3311-0.38229 220.03-79.543 288.3-296.26 287.92-4.1239 0.0071603-4.1239 0.0071603-8.3311 0.014465-220.03-0.38229-288.3-79.543-287.92-296.26-0.0047736-2.7493-0.0095471-5.4985-0.014465-8.3311 0.38229-220.03 79.543-288.3 296.26-287.92z" fill="#FDFDFD"/>
 <path transform="translate(103.22 70.734)" d="m0 0c2.6232-0.0025781 5.2465-0.0051562 7.9492-0.0078125 2.7496 0.0077344 5.4991 0.015469 8.332 0.023438 2.7496-0.0077344 5.4991-0.015469 8.332-0.023438 3.9349 0.0038672 3.9349 0.0038672 7.9492 0.0078125 3.6207 0.0033838 3.6207 0.0033838 7.3145 0.0068359 15.954 0.69925 14.294 10.684 14.356 24.255 0.011682 1.7467 0.023364 3.4935 0.0354 5.2931 0.033661 5.7878 0.04433 11.575 0.052002 17.363 0.012173 4.0141 0.024659 8.0283 0.037445 12.042 0.022497 8.4191 0.032032 16.838 0.034332 25.257 0.0052887 10.803 0.056651 21.605 0.11952 32.407 0.0408 8.2912 0.050125 16.582 0.0506 24.874 0.005398 3.9835 0.022322 7.9671 0.05085 11.951 0.036532 5.5644 0.029068 11.127 0.010479 16.692 0.0064957 3.1693 0.012991 6.3386 0.019684 9.6039-1.604 13.996-9.7592 14.281-21.932 14.283-4.1282 0.004834-4.1282 0.004834-8.3398 0.0097656-4.3138-0.041572-4.3138-0.041572-8.7148-0.083984-4.3254 0.022236-4.3254 0.022236-8.7383 0.044922-22.466-0.089525-28.248-0.2585-28.298-23.398-0.0049649-1.7591-0.0099298-3.5182-0.015045-5.3307-0.014672-5.8516-0.021432-11.703-0.026947-17.555-0.0057472-4.0471-0.011505-8.0941-0.017273-12.141-0.010524-8.4984-0.016358-16.997-0.019836-25.495-0.0054886-10.913-0.029519-21.825-0.057972-32.738-0.018584-8.3632-0.02383-16.726-0.025364-25.09-0.0030365-4.0242-0.011098-8.0485-0.024185-12.073-0.016972-5.6199-0.015202-11.239-0.0086899-16.859-0.0036456-3.2035-0.0072913-6.4071-0.011047-9.7077 0.72722-14.536 9.0768-13.6 21.586-13.611z" fill="#262022"/>
 <path transform="translate(336.63 70.246)" d="m0 0c3.9929 0.020303 3.9929 0.020303 8.0664 0.041016 4.1708 0.074443 4.1708 0.074443 8.4258 0.15039 2.7882 0.014824 5.5765 0.029648 8.4492 0.044922 29.772 0.28141 29.772 0.28141 29.877 23.492 0.011682 1.7563 0.023364 3.5127 0.0354 5.3223 0.033689 5.8257 0.044333 11.651 0.052002 17.477 0.012172 4.038 0.024658 8.0759 0.037445 12.114 0.022505 8.4721 0.032033 16.944 0.034332 25.416 0.0052871 10.871 0.056636 21.741 0.11952 32.612 0.040801 8.3419 0.050125 16.684 0.0506 25.025 0.0053984 4.0087 0.022324 8.0173 0.05085 12.026 0.036532 5.6004 0.029067 11.199 0.010479 16.8 0.0064957 3.1901 0.012991 6.3801 0.019684 9.6668-1.5277 13.41-8.8565 14.321-20.698 14.257-2.5085-0.0058008-5.017-0.011602-7.6016-0.017578-3.9291-0.055107-3.9291-0.055107-7.9375-0.11133-2.6116-0.0019336-5.2233-0.0038672-7.9141-0.0058594-31.928-0.22126-31.928-0.22126-32.049-23.31-0.011536-1.7448-0.023072-3.4897-0.034958-5.2874-0.034417-5.7939-0.052831-11.588-0.068314-17.382-0.0069029-1.9744-0.013806-3.9487-0.020918-5.9829-0.035879-10.447-0.059397-20.894-0.073076-31.341-0.016562-10.809-0.075-21.618-0.14314-32.427-0.044704-8.2956-0.058345-16.591-0.063474-24.887-0.0079142-3.9855-0.027621-7.971-0.059223-11.956-0.041267-5.5716-0.038644-11.141-0.025175-16.713-0.0095119-3.1731-0.019024-6.3462-0.028824-9.6154 1.5838-14.176 8.9052-15.532 21.488-15.409z" fill="#272123"/>
 <path transform="translate(221 70.734)" d="m0 0c2.5781-0.0025781 5.1562-0.0051562 7.8125-0.0078125 2.7019 0.0077344 5.4038 0.015469 8.1875 0.023438 4.0528-0.011602 4.0528-0.011602 8.1875-0.023438 2.5781 0.0025781 5.1562 0.0051562 7.8125 0.0078125 2.3719 0.0022559 4.7438 0.0045117 7.1875 0.0068359 16.323 0.72676 15.397 10.516 15.309 24.149 0.0014552 1.77 0.0029105 3.54 0.0044098 5.3637-0.0016611 3.7424-0.013246 7.4848-0.033951 11.227-0.029005 5.7591-0.020601 11.517-0.0075684 17.276-0.0062352 3.6276-0.014624 7.2552-0.025391 10.883 0.0029356 1.7374 0.0058713 3.4747 0.0088959 5.2647-0.026857 3.3639-3.4425 18.12-3.4425 10.095-1.98-0.66-3.96-1.32-6-2-5-2-5-2-5-4-18.095-3.0158-42.437-4.6725-58 7-6.264 0-3.3939-12.511-3.3984-16.887-0.0028702-1.7194-0.0057404-3.4389-0.0086975-5.2104-0.0020484-3.6511 0.0035349-7.3023 0.016022-10.953 0.015993-5.5947 2.0064e-4 -11.189-0.019043-16.783 0.0019832-3.5384 0.0058286-7.0768 0.011719-10.615 0.0033838-3.2416 0.0067676-6.4832 0.010254-9.823 0.76925-15.314 7.9524-14.981 21.388-14.993z" fill="#272224"/>
 <path transform="translate(270,244)" d="m0 0-1 3h-2l-2 5c-7 6-7 6-9 6v2c-4.2954 2.1477-31 8.9048-31 1l-5-1c-10.415-6.8147-14.182-11.163-18-23l-2-1c-0.91503-28-0.91503-28 5-28l1-5c5-5 5-5 9-7l3-3c33.697-12.636 69.945 15.111 52 51z" fill="#A9242A"/>
 <path transform="translate(244,306)" d="m0 0c4.0154 0.28122 8.0388 0.45145 12.062 0.5625 13.173 0.37859 23.015 13.438 4.9375 13.438-0.33333 3.1667-0.33333 3.1667 7 2 1 4 1 4-8 4 0 6.9474 5.3171 4.1292 11 4 0 2 0 2-8 2 4.1025 5.9933 4.1025 5.9933 8 7 0 3 0 3-5 3v4c-5.7603 0.29923-11.426-0.017206-17.188-0.25-13.615 0.70727 2.4628 4.5603 7.5625 4.4375 5.8357-0.12117 24.302 3.0921 7.6365 4.2166-8.6916 0.031663-17.382 0.05369-26.074 0.033447-3.048 0.01998-6.096 0.039961-9.2363 0.060547-4.3245-9.668e-4 -4.3245-9.668e-4 -8.7363-0.0019531-2.6749 0.001853-5.3498 0.003706-8.1057 0.0056152-18.156-1.5547 9.1789-4.3597 14.453-4.1541 13.631-0.83319 1.8561-5.7713-5.3125-5.4727-11 0.43056-11 0.43056-11-2.875h-5c1-4 1-4 6-7 1.969-3.1926 1.969-3.1926-7-2 0-6.9474 5.3171-4.1292 11-4 0.33333-3.1667 0.33333-3.1667-7-2-1-5-1-5 7-5 0.33333-3.5 0.33333-3.5-9-2-0.35487-16.856 6.0518-13.033 20.688-12.742 6.0661-0.29438 10.817-7.7529 17.312-1.2578z" fill="#303030"/>
 <path transform="translate(337,310)" d="m0 0c3.2484-0.061875 3.2484-0.061875 6.5625-0.125 10.208 1.7839 7.2808 7.0788 6.4375 16.125 4.4665-2.2333 2.7828-14.533 3-19 2.4928-2.4928 15.179-1.1273 18-1.125 4.7025-0.0038672 4.7025-0.0038672 9.5-0.0078125 8.4522 0.14967 8.4522 0.14967 8.9375 10.133-0.75851 8.6998-0.75851 8.6998 2.5625 10 0 3 0 3-2 4v9.0625c0 8.9375 0 8.9375-2 8.9375l-2 4c-11.625 3.875-11.625 3.875-9-4-5.6651-0.13382-11.335-0.11722-17 0-10.287-4.4087-7.3307-8.6649-7-19-4.1667-0.5-4.1667-0.5-3 7h-2c-2.6171 8.0756-2.6171 8.0756 0 13 0 7.9529-4.0508 5.6374-11.062 5.5625-3.0802 0.0019336-3.0802 0.0019336-6.2227 0.0039062-8.6331-1.0371-3.867-4.5056 1.2852-6.5664 0.63246-4.3162 0.63246-4.3162-3-5-3.8553-6.4254-3.541-10.974-3.75-18.438-0.077344-2.3912-0.15469-4.7824-0.23438-7.2461-0.022754-9.1982 8.9688-22.394 11.984-7.3164z" fill="#191919"/>
 <path transform="translate(122,308)" d="m0 0c4.6629 0.1884 9.3357 0.14926 14 0 5.537-0.17719 25.719 3.2094 8.168 4.5039-2.9636 0.019336-5.9271 0.038672-8.9805 0.058594-10.308-1.0535-10.308-1.0535-18.188 3.4375 5.1279-0.20986 10.253-0.49605 15.375-0.8125 14.954-0.24946 19.135 0.76546 15.625 16.812h3c0 2 0 2-3 2l0.8125 7.1875c0.25159 10.483-3.4716 12.812-13.812 12.812v-4c-5.4971-0.41421-5.4971-0.41421-12-0.125-12 0.31944-12 0.31944-12-1.875-0.99-0.33-1.98-0.66-3-1l0.0625-6c0.90054-6.4446 0.90054-6.4446-4.0625-7 0-3 0-3 4-3 1.7882-8.3186 1.7882-8.3186-4-11 2-10 2-10 6-10l1-5c5.1578-5.1578 9.6817-2.2733 11 3z" fill="#111"/>
 <path transform="translate(244,306)" d="m0 0c6.31 0.29597 12.62 0.50615 18.934 0.71875 10.808 0.59998 10.977 13.281-1.9336 13.281-0.33333 3.1667-0.33333 3.1667 7 2 1 4 1 4-8 4 0 6.9474 5.3171 4.1292 11 4 0 2 0 2-8 2 4.1025 5.9933 4.1025 5.9933 8 7 0 3 0 3-5 3v4c-5.7614 0.2572-11.428-0.082229-17.188-0.34766-15.362 1.1098 5.0024 6.1748 10.188 6.3477 0 2.231-23.02 1.1867-26 1.1875-3.7202 0.018369-3.7202 0.018369-7.5156 0.037109-3.5191 0.0029004-3.5191 0.0029004-7.1094 0.0058594-3.2678 0.0061633-3.2678 0.0061633-6.6016 0.012451-14.97-0.76181 12.211-1.7665 15.539-1.6296 13.61-1.4676 3.355-8.3471-5.3125-7.9258-11 0.46528-11 0.46528-11-1.6875 5.7387 0.018632 11.454 0.2695 17.188 0.51562 5.8068 0.18452 5.8068 0.18452 4.8125-6.5156 10 0 10 0 11 5 15.483 1.9811 15.483 1.9811 7-7v-2c-3.853-0.095062-7.709-0.074149-11.562 0-11.548 0.22195-11.548 0.22195-10.438-2 3.3547-0.014649 6.71 0.063335 10.062 0.1875 7.6151-0.14368 16.536-4.5366 5.3438-5.6406l-5.9062 0.20312c-2.2099 0.06431-18.782-0.4497-5.6523-0.92578 4.1457-0.091199 8.2915-0.17452 12.438-0.25 12.858-1.566-2.625-5.1802-6.8477-5.2617-19.634-0.45661-3.5686-1.6384 5.8711-1.9336 4.7121 0.29272 4.7121 0.29272 5.6914-2.3789h9c-2.078-6.2341-15.93-3.3801-21.738-3.3984-13.03-1.4897 2.1945-5.1695 6.7383-4.6016z" fill="#222"/>
 <path transform="translate(337,310)" d="m0 0c2.9719 0.034805 2.9719 0.034805 6.0039 0.070312 8.9042 1.3806 7.3577 4.4488 6.9336 12.805-0.073477 2.1837-0.14695 4.3673-0.22266 6.6172-0.67364 6.1327-1.9459 11.611-3.7148 17.508-0.33333 2.3333-0.33333 2.3333 2 2 0 7.9529-4.0508 5.6374-11.062 5.5625-3.0802 0.0019336-3.0802 0.0019336-6.2227 0.0039062-8.6331-1.0371-3.867-4.5056 1.2852-6.5664 0.63246-4.3162 0.63246-4.3162-3-5-3.8553-6.4254-3.541-10.974-3.75-18.438-0.077344-2.3912-0.15469-4.7824-0.23438-7.2461-0.022754-9.1982 8.9688-22.394 11.984-7.3164z" fill="#0C0C0C"/>
 <path transform="translate(390.12 388)" d="m0 0c0.0038672 3.8672 0.0038672 3.8672 0.0078125 7.8125-0.4091 19.059-6.1328-3.5474-6.1328-11.812-4.717 2.5554-4.717 2.5554-7 5-5 0-5 0-11-4-0.41707 8.2497-0.41707 8.2497 0 17-6.5773 13.155-7.427-12.904-7.4375-13.562-0.060586-2.6825-0.12117-5.3651-0.18359-8.1289 1.1163-11.339 8.5645-6.3652 14.621-0.30859 5.3727 0.74536 5.3727 0.74536 7-4 11.397-11.397 10.132 4.8962 10.125 12z" fill="#302F30"/>
 <path transform="translate(90.5,380)" d="m0 0c1.1861 14.233 16.666 7.9882 15.5-6 10.755 0 7.7664 4.3792 7.5 13.938-0.051562 2.5871-0.10312 5.1743-0.15625 7.8398-0.7008 12.686-7.3438 7.7465-7.3438-3.7773-14.195-3.0076-14.195-3.0076-16 10-5.7684 11.537-6.7479-12.477-6.75-13.562-0.036094-2.6825-0.072188-5.3651-0.10938-8.1289 1.1644-8.5478 8.2119-10.539 7.3594-0.30859z" fill="#434343"/>
 <path transform="translate(268,374)" d="m0 0-0.625 5.5c1.4611 12.858 18.048 8.4134 16.625-5.5 10.755 0 7.7664 4.3792 7.5 13.938-0.051562 2.5871-0.10312 5.1743-0.15625 7.8398-0.43802 7.9291-6.4912 11.892-6.1562 1.2852-2.9769-15.198-18.776-9.2219-17.188 5.9375-9.5649 0-6.3005-6.7328-6.4375-15.062-0.060586-2.5897-0.12117-5.1795-0.18359-7.8477 0.62109-6.0898 0.62109-6.0898 6.6211-6.0898z" fill="#3C3C3C"/>
 <path transform="translate(243,342)" d="m0 0c5.1118 0.53575 5.1118 0.53575 11.062 0.1875 3.1698-0.10653 19.007 1.3939 6.3438 2.0508-3.9374 0.049478-7.8749 0.091145-11.812 0.125-11.444 1.5863-1.8279 6.6945 4.0312 7.1367 18.5 1.451-16.03 1.6866-19.625 1.6875-3.7202 0.018369-3.7202 0.018369-7.5156 0.037109-3.5191 0.0029004-3.5191 0.0029004-7.1094 0.0058594-3.2678 0.0061633-3.2678 0.0061633-6.6016 0.012451-14.97-0.76181 12.211-1.7665 15.539-1.6296 13.61-1.4676 3.355-8.3471-5.3125-7.9258-11 0.46528-11 0.46528-11-1.6875 5.7384-0.023289 11.453 0.20439 17.188 0.41797 14.642-1.2716 14.642-1.2716 14.812-0.41797z" fill="#0A0A0A"/>
 <path transform="translate(192,382)" d="m0 0v-3c8.5412-8.5412 16.079-4.0787 7 5h-5l1 5c-0.085376 9.989-8 22.743-8 6.5625-1.1712-8.8574-3.7808-11.431-10-17.562 0-10.899 11.532 0.83612 15 4z" fill="#373737"/>
 <path transform="translate(323.44 385.88)" d="m0 0c2.2881-0.0025781 4.5762-0.0051562 6.9336-0.0078125 11.757 0.27741 12.4 17.133 1.6289 17.133l0.625-5.5c-1.4503-12.763-18.218-8.5186-16.625 5.5-13.65 0-7.5476-17.142 7.4375-17.125z" fill="#3A3A3A"/>
 <path transform="translate(145.5 385.69)" d="m0 0c2.0934-0.016758 4.1869-0.033516 6.3438-0.050781 10.28 0.72428 12.148 17.363 1.1562 17.363l0.5625-5.5c-1.2785-12.501-15.562-8.4296-15.562 4.5-14.121 0-6.1095-16.287 7.5-16.312z" fill="#3A393A"/>
 <path transform="translate(140.44 340.5)" d="m0 0c-4.0787 10.877-21.07 11.818-23.75-0.5625 2.6931-12.183 19.9-9.7032 23.75 0.5625z" fill="#7E7D7E"/>
 <path transform="translate(138,332)" d="m0 0c-8.8456 2.5109-19.048 4.3073-21.312-5.9375 3.0593-14.131 27.895-11.615 21.312 5.9375z" fill="#828282"/>
 <path transform="translate(378,326)" d="m0 0c-14.826 3.9535-16.942-1.063-15-15 12.974-12.974 17.108 4.7633 15 15z" fill="#CBCBCB"/>
 <path transform="translate(99,346)" d="m0 0c-2.5813 6.023-14 17.138-14 3h2c0.70223-3.9939 1.3655-7.9948 2-12 5.3926-13.481 14.925-4.1341 10 9z" fill="#1A1A1A"/>
 <path transform="translate(238.5,332.75)" d="m0 0c2.2584-0.025781 4.5169-0.051562 6.8438-0.078125 5.6562 0.32812 5.6562 0.32812 8.6562 3.3281l5 3c2.7127 5.4254-12.58 2.1117-15 2l-1-4c-8.7003-2.7429-8.7003-2.7429-10 5-23.886 1.2571-23.886 1.2571-16-4h4l2-4c5.0427-1.6809 10.216-1.2138 15.5-1.25z" fill="#E6E5E6"/>
 <path transform="translate(378,345)" d="m0 0c-14.649 4.0545-16.847-2.5042-14-16 15.004-2.4764 15.795 1.7594 14 16z" fill="#989898"/>
 <path transform="translate(238.5 310.69)" d="m0 0c2.9333-0.02417 2.9333-0.02417 5.9258-0.048828 14.574-0.0050781 14.574-0.0050781 14.574 3.3613h-9v2c-3.9948 0.22887-7.9986 0.30555-12 0.3125-2.2275 0.016758-4.455 0.033516-6.75 0.050781-5.25-0.36328-5.25-0.36328-5.25-3.3633h-8c0-4.3101 16.184-2.3196 20.5-2.3125z" fill="#DCDCDC"/>
 <path transform="translate(237.34 397.53)" d="m0 0c-0.59889 7.7923-7.0886 7.7923-7.6875 0-0.56063-20.056 8.2481-20.056 7.6875 0z" fill="#494949"/>
 <path transform="translate(370,378)" d="m0 0h-2l-1 4h-3c-0.18207 5.2286 0.078267 10.398 0.28516 15.625-0.9194 14.106-4.9471-5.7066-4.9727-9.6875-0.045117-2.6104-0.090234-5.2207-0.13672-7.9102 1.2079-8.8329 5.3163-7.5352 10.824-2.0273z" fill="#252424"/>
 <path transform="translate(324.56 373.69)" d="m0 0c2.105-0.037383 4.2101-0.074766 6.3789-0.11328 14.588 1.2278-0.23836 5.5583-6.3789 5.5508-3.1537 0.0038672-3.1537 0.0038672-6.3711 0.0078125-15.51-0.39679-1.3569-5.3553 6.3711-5.4453z" fill="#313131"/>
 <path transform="translate(233.56 373.69)" d="m0 0c2.105-0.037383 4.2101-0.074766 6.3789-0.11328 14.588 1.2278-0.23836 5.5583-6.3789 5.5508-3.1537 0.0038672-3.1537 0.0038672-6.3711 0.0078125-15.51-0.39679-1.3569-5.3553 6.3711-5.4453z" fill="#2B2B2B"/>
 <path transform="translate(145.56 373.69)" d="m0 0c2.105-0.037383 4.2101-0.074766 6.3789-0.11328 14.588 1.2278-0.23836 5.5583-6.3789 5.5508-3.1537 0.0038672-3.1537 0.0038672-6.3711 0.0078125-15.51-0.39679-1.3569-5.3553 6.3711-5.4453z" fill="#313131"/>
 <path transform="translate(122,308)" d="m0 0c7.2859 0.17939 14.528-0.077548 21.812-0.28516 17.881 0.82406-2.7955 4.7185-9 4.6602-3.0254-0.012891-6.0509-0.025781-9.168-0.039062-6.6445-0.33594-6.6445-0.33594-2.6445-2.3359l-2-1c0-4 0-4 1-1z" fill="#4A4A4A"/>
 <path transform="translate(121,340)" d="m0 0c0.99 0.33 1.98 0.66 3 1l1 2c9.3671 1.3199 9.3671 1.3199 7-7 12.66 0 5.0482 10.993-4 12.375-16.323-2.4938-7-15.158-7-8.375z" fill="#8C8C8C"/>
 <path transform="translate(199,384)" d="m0 0h-5l1 5c-0.034404 4.0253-7 20.881-7 13h5c0.44184-10.473 0.44184-10.473-3-20h2v-3c8.5412-8.5412 16.079-4.0787 7 5z" fill="#909090"/>
 <path transform="translate(101,328)" d="m0 0c-11.429 0-11.429 0-14-9 6.8418-6.8418 14 2.6202 14 9z" fill="#111"/>
 <path transform="translate(101,316)" d="m0 0c-8.6114 0-9.4817-0.22259-14-7 0-10.013 14-0.69 14 7z" fill="#0D0D0D"/>
 <path transform="translate(122,321)" d="m0 0-1 3h2l1 5c11.693 1.6565 11.693 1.6565 9-9 11.866 0 2.9646 11.158-5 12.375-11.274-1.7225-12.246-13.457-6-11.375z" fill="#A5A5A5"/>
 <path transform="translate(238,318.5)" d="m0 0 6.75-0.03125c14.239 1.4408-1.4657 5.0557-6.75 5.0312l-6.75 0.03125c-14.239-1.4408 1.4657-5.0557 6.75-5.0312z" fill="#C1C1C1"/>
 <path transform="translate(243,306)" d="m0 0h-7c-6.4266 6.4266 4.9516 3.5343 9.3125 3.625 24.326 0.56106 3.6425 1.5222-7.3125 1.5-2.8617 0.0058008-2.8617 0.0058008-5.7812 0.011719-20.949-0.014964-20.949-0.014964-8.2188-2.1367-5.3323-0.34966-10.666-0.68154-16-1 0-2.1076 16.244-0.78983 18.652-0.74219 4.6643-0.22487 12.792-8.3699 16.348-1.2578z" fill="#656565"/>
 <path transform="translate(376,342)" d="m0 0c-10.504 0-11.106-0.16886-10-10 9.5885 0 10 0.83886 10 10z" fill="#121212"/>
 <path transform="translate(340,335)" d="m0 0c-6.7646 0-4.5306-4.7586-4.5-10.562-0.010312-1.9607-0.020625-3.9213-0.03125-5.9414 1.8373-15.55 4.6599 13.947 4.5312 16.504z" fill="#949494"/>
 <path transform="translate(359.81 388)" d="m0 0c-0.05543 2.5988-0.11086 5.1975-0.16797 7.875 0.78618 13.546 4.6861 2.8982 4.418-3.875-0.10863-2.844 0.55725-17.141 3.9375-7h-2c-0.042287 5.6665-0.041062 11.333 0 17-6.6231 13.246-7.1256-12.949-7.125-13.562-0.0025781-2.6825-0.0051562-5.3651-0.0078125-8.1289 0.36539-17.356 0.98874 5.3252 0.94531 7.6914z" fill="#7A7879"/>
 <path transform="translate(376,320)" d="m0 0c0 8.4665-8.0903 2.767-9.9375-2-0.14268-11.414 7.3937-3.9356 9.9375 2z" fill="#0D0D0D"/>
 <path transform="translate(134,326)" d="m0 0c0 3 0 3-10 3-3.2955-11.534 6.1495-10.701 10-3z" fill="#0A0A0A"/>
 <path transform="translate(134,344)" d="m0 0c-9 0-9 0-12-4 0-10.703 10.394-1.6211 12 4z" fill="#0C0C0C"/>
 <path transform="translate(238 325.62)" d="m0 0c2.0419-0.0077344 4.0838-0.015469 6.1875-0.023438 13.051 1.0805-1.9585 3.7895-6.1875 3.7734-2.0419 0.0077344-4.0838 0.015469-6.1875 0.023438-13.051-1.0805 1.9585-3.7895 6.1875-3.7734z" fill="#DFDFDF"/>
 <path transform="translate(285,402)" d="m0 0c-3.35 0-1-6.65-1-10-12.522-2.6779-12.522-2.6779-14 9-5.804 2.902 15.702-29.553 15 1z" fill="#A2A2A2"/>
 <path transform="translate(390.12 388.06)" d="m0 0c0.0038672 3.8846 0.0038672 3.8846 0.0078125 7.8477-0.38442 17.627-1.4287-11.208-1.4609-14.223-1.0881-9.2111-4.7154-6.4527-10.672-1.6875 8.3006-16.601 12.136-2.5557 12.125 8.0625z" fill="#858585"/>
 <path transform="translate(216,317)" d="m0 0h-9c-0.33333 3.5-0.33333 3.5 9 2 0 5.7026-9 8.2103-9 3h8c0.33333-3.5 0.33333-3.5-9-2 1.078-6.4679 10-11.714 10-3z" fill="#818181"/>
 <path transform="translate(270,320)" d="m0 0h-9c-0.33333 3.1667-0.33333 3.1667 7 2 0 4.8981-8 2.3333-8-3h9c0.33333-3.5 0.33333-3.5-9-2 0-8.3879 10-4.4725 10 3z" fill="#878687"/>
 <path transform="translate(365,312)" d="m0 0h9c1 4 1 4-1 2-10.425-1.4893-7.1007 0.99735-5 9-2-1-2-1-2-6-3.5-0.33333-3.5-0.33333-2 9-1.798 0-2.4812-20.962 1-14z" fill="#6E6E6E"/>
 <path transform="translate(102,329)" d="m0 0-1 1 2 1c-1 4-1 4-1 1h-10l1-3h-2c1-2 1-2 10-1 0-3 0-3 1 1z" fill="#969696"/>
 <path transform="translate(198,383)" d="m0 0c-7.5565 0-3.3801-4.6199 0-8 7.5565 0 3.3801 4.6199 0 8z" fill="#212121"/>
 <path transform="translate(338,309)" d="m0 0h10c2.452 4.904-10.524 2.4757-12 1v-5h-9c0-9.2038 10.209 0.047125 11 4z" fill="#929292"/>
 <path transform="translate(377,338)" d="m0 0c-2 0-2 0-3-7h-9c5.2173-10.435 12 0.87392 12 7z" fill="#CDCDCD"/>
 <path transform="translate(269,328)" d="m0 0c0.99 0.33 1.98 0.66 3 1-1 3-1 3-1 1-1.815 0.04125-3.63 0.0825-5.5 0.125-15.725-0.35738 3.5-9.4437 3.5-2.125z" fill="#BFBFBF"/>
 <path transform="translate(377,318)" d="m0 0c-2-1-2-1-3-5-2.97-0.33-5.94-0.66-9-1 0-5.2103 12-4.4871 12 6z" fill="#E7E7E7"/>
 <path transform="translate(137.44 325.56)" d="m0 0c-0.72964 9.0684-3.307 5.1422-4.375-0.625-0.10081-7.9636 3.8175-6.4631 4.375 0.625z" fill="#F0F0F0"/>
 <path transform="translate(378.94 316)" d="m0 0c-1.1213 8.3724-2.4159 10.13-3.9375 1h1c1.5112-10.578-2.1244-7.549-11-7 0-5.3877 12.932-1.5044 13.938 6z" fill="#868586"/>
 <path transform="translate(124,344)" d="m0 0 1 2c-9.6153 0-7.7749-20.066-1-2z" fill="#F1F1F1"/>
 <path transform="translate(137,336)" d="m0 0c0 12.376-2.3543 12.874-4 3-1-3-1-3 4-3z" fill="#F3F3F3"/>
 <path transform="translate(123,330)" d="m0 0c-4 1-4 1-4.4375-4.5 1.0367-13.033 3.9602 0.20399 4.4375 4.5z" fill="#F0F0F0"/>
 <path transform="translate(367,342)" d="m0 0h10c0 16.17-17.179-14.358-10 0z" fill="#E5E5E5"/>
</svg>
